<?xml version="1.0" encoding="utf-8"?>
<!-- Generator: Adobe Illustrator 16.0.0, SVG Export Plug-In . SVG Version: 6.00 Build 0)  -->
<!DOCTYPE svg PUBLIC "-//W3C//DTD SVG 1.1//EN" "http://www.w3.org/Graphics/SVG/1.1/DTD/svg11.dtd">
<svg version="1.1" xmlns="http://www.w3.org/2000/svg" xmlns:xlink="http://www.w3.org/1999/xlink" x="0px" y="0px" width="256px"
	 height="256px" viewBox="0 0 256 256" enable-background="new 0 0 256 256" xml:space="preserve">
<g id="Layer_2">
	<path opacity="0.1" fill="#6B21D6" d="M107.875,155.375c0,5.315-4.309,9.625-9.625,9.625H20.5c-5.316,0-9.625-4.31-9.625-9.625l0,0
		c0-5.315,4.309-9.625,9.625-9.625h77.75C103.566,145.75,107.875,150.06,107.875,155.375L107.875,155.375z"/>
	<path opacity="0.1" fill="#6B21D6" d="M134.625,214.416c0-6.213,5.037-11.25,11.25-11.25h88c6.213,0,11.25,5.037,11.25,11.25l0,0
		c0,6.213-5.037,11.25-11.25,11.25h-88C139.662,225.666,134.625,220.629,134.625,214.416L134.625,214.416z"/>
	<path opacity="0.1" fill="#6B21D6" d="M97.375,186.625c0,2.002-1.623,3.625-3.625,3.625h-66.5c-2.002,0-3.625-1.623-3.625-3.625
		l0,0c0-2.002,1.623-3.625,3.625-3.625h66.5C95.752,183,97.375,184.623,97.375,186.625L97.375,186.625z"/>
	<path opacity="0.1" fill="#6B21D6" d="M196.75,70.5c0,5.937-4.813,10.75-10.75,10.75H29.75C23.813,81.25,19,76.437,19,70.5l0,0
		c0-5.937,4.813-10.75,10.75-10.75H186C191.938,59.75,196.75,64.563,196.75,70.5L196.75,70.5z"/>
	<path opacity="0.1" fill="#6B21D6" d="M122.625,128.5c0,4.004,3.246,7.25,7.25,7.25h94.75c4.004,0,7.25-3.246,7.25-7.25l0,0
		c0-4.004-3.246-7.25-7.25-7.25h-94.75C125.871,121.25,122.625,124.496,122.625,128.5L122.625,128.5z"/>
	<path opacity="0.1" fill="#6B21D6" d="M238.666,84.833c0,0.644-0.522,1.167-1.167,1.167h-68.332c-0.645,0-1.167-0.522-1.167-1.167
		l0,0c0-0.645,0.522-1.167,1.167-1.167h68.332C238.144,83.666,238.666,84.188,238.666,84.833L238.666,84.833z"/>
	<path opacity="0.25" fill="#6B21D6" d="M45.667,113.333c0,0.736-0.597,1.333-1.333,1.333h-24c-0.736,0-1.333-0.597-1.333-1.333l0,0
		c0-0.736,0.597-1.333,1.333-1.333h24C45.07,112,45.667,112.597,45.667,113.333L45.667,113.333z"/>
	<path opacity="0.1" fill="#6B21D6" d="M131.667,36.833c0,0.644-0.522,1.167-1.167,1.167H87.167C86.522,38,86,37.478,86,36.833l0,0
		c0-0.644,0.522-1.167,1.167-1.167H130.5C131.145,35.667,131.667,36.189,131.667,36.833L131.667,36.833z"/>
	<path opacity="0.25" fill="#6B21D6" d="M163.667,48.582c0,0.783-0.635,1.417-1.417,1.417h-21.166c-0.782,0-1.417-0.634-1.417-1.417
		l0,0c0-0.782,0.635-1.417,1.417-1.417h21.166C163.032,47.165,163.667,47.799,163.667,48.582L163.667,48.582z"/>
</g>
<g id="Layer_1">
	<g>
		<defs>
			<rect id="SVGID_1_" width="256" height="256"/>
		</defs>
		<clipPath id="SVGID_2_">
			<use xlink:href="#SVGID_1_"  overflow="visible"/>
		</clipPath>
		<path opacity="0.25" clip-path="url(#SVGID_2_)" fill="#6B21D6" d="M109,180.188H78c-4.4,0-8-3.6-8-8v-72c0-4.4,3.6-8,8-8h112
			c4.4,0,8,3.6,8,8v72c0,4.4-3.6,8-8,8h-38"/>
		<path opacity="0.75" clip-path="url(#SVGID_2_)" fill="#FFFFFF" d="M134.333,98H188c2.2,0,4,1.8,4,4v60c0,2.2-1.8,4-4,4H80
			c-2.2,0-4-1.8-4-4v-60c0-2.2,1.8-4,4-4h12.833H134.333z"/>
		<g clip-path="url(#SVGID_2_)">
			<defs>
				<rect id="SVGID_3_" width="256" height="256"/>
			</defs>
			<clipPath id="SVGID_4_">
				<use xlink:href="#SVGID_3_"  overflow="visible"/>
			</clipPath>
			<g opacity="0.5" clip-path="url(#SVGID_4_)">
				<g>
					<defs>
						<rect id="SVGID_5_" x="69.5" y="93.5" width="117" height="69"/>
					</defs>
					<clipPath id="SVGID_6_">
						<use xlink:href="#SVGID_5_"  overflow="visible"/>
					</clipPath>
				</g>
			</g>
			<g opacity="0.5" clip-path="url(#SVGID_4_)">
				<g>
					<defs>
						<rect id="SVGID_7_" x="105.667" y="93.5" width="6.083" height="1"/>
					</defs>
					<clipPath id="SVGID_8_">
						<use xlink:href="#SVGID_7_"  overflow="visible"/>
					</clipPath>
				</g>
			</g>
			<g opacity="0.5" clip-path="url(#SVGID_4_)">
				<g>
					<defs>
						<rect id="SVGID_9_" x="90.5" y="93.5" width="12.083" height="1"/>
					</defs>
					<clipPath id="SVGID_10_">
						<use xlink:href="#SVGID_9_"  overflow="visible"/>
					</clipPath>
				</g>
			</g>
			<g opacity="0.1" clip-path="url(#SVGID_4_)">
				<g>
					<defs>
						<rect id="SVGID_11_" x="85" y="118" width="87" height="25"/>
					</defs>
					<clipPath id="SVGID_12_">
						<use xlink:href="#SVGID_11_"  overflow="visible"/>
					</clipPath>
				</g>
			</g>
		</g>
		<g clip-path="url(#SVGID_2_)">
			<defs>
				<rect id="SVGID_13_" width="256" height="256"/>
			</defs>
			<clipPath id="SVGID_14_">
				<use xlink:href="#SVGID_13_"  overflow="visible"/>
			</clipPath>
		</g>
		<g clip-path="url(#SVGID_2_)">
			<defs>
				<rect id="SVGID_15_" width="256" height="256"/>
			</defs>
			<clipPath id="SVGID_16_">
				<use xlink:href="#SVGID_15_"  overflow="visible"/>
			</clipPath>
			
				<path clip-path="url(#SVGID_16_)" fill="none" stroke="#6B21D6" stroke-width="2" stroke-linecap="round" stroke-linejoin="round" stroke-miterlimit="10" d="
				M109,180H78c-4.4,0-8-3.6-8-8v-72c0-4.4,3.6-8,8-8h112c4.4,0,8,3.6,8,8v72c0,4.4-3.6,8-8,8h-38"/>
			
				<path clip-path="url(#SVGID_16_)" fill="none" stroke="#6B21D6" stroke-width="2" stroke-linecap="round" stroke-linejoin="round" stroke-miterlimit="10" d="
				M152,180h-36l-2.471,14H107c-1.65,0-3,1.35-3,3s1.35,3,3,3h53c1.65,0,3-1.35,3-3s-1.35-3-3-3h-5.529l-1.453-8.231"/>
			
				<path opacity="0.75" clip-path="url(#SVGID_16_)" fill="none" stroke="#6B21D6" stroke-linecap="round" stroke-linejoin="round" stroke-miterlimit="10" d="
				M134.333,98H188c2.2,0,4,1.8,4,4v60c0,2.2-1.8,4-4,4H80c-2.2,0-4-1.8-4-4v-60c0-2.2,1.8-4,4-4h12.833"/>
			
				<line opacity="0.75" clip-path="url(#SVGID_16_)" fill="none" stroke="#6B21D6" stroke-linecap="round" stroke-linejoin="round" stroke-miterlimit="10" x1="112.167" y1="98" x2="117.25" y2="98"/>
			
				<line opacity="0.75" clip-path="url(#SVGID_16_)" fill="none" stroke="#6B21D6" stroke-linecap="round" stroke-linejoin="round" stroke-miterlimit="10" x1="97" y1="98" x2="108.083" y2="98"/>
		</g>
		<g clip-path="url(#SVGID_2_)">
			<defs>
				<rect id="SVGID_17_" width="256" height="256"/>
			</defs>
			<clipPath id="SVGID_18_">
				<use xlink:href="#SVGID_17_"  overflow="visible"/>
			</clipPath>
		</g>
		
			<path display="none" clip-path="url(#SVGID_2_)" fill="none" stroke="#6B21D6" stroke-width="2" stroke-linecap="round" stroke-linejoin="round" stroke-miterlimit="10" d="
			M108.984,179.984h-31c-4.4,0-8-3.6-8-8v-72c0-4.4,3.6-8,8-8h112c4.4,0,8,3.6,8,8v72c0,4.4-3.6,8-8,8h-38"/>
		<path display="none" opacity="0.1" clip-path="url(#SVGID_2_)" fill="#6B21D6" d="M114,175.188H83c-4.4,0-8-3.6-8-8v-72
			c0-4.4,3.6-8,8-8h112c4.4,0,8,3.6,8,8v72c0,4.4-3.6,8-8,8h-38"/>
		<path display="none" opacity="0.1" clip-path="url(#SVGID_2_)" fill="#6B21D6" d="M114,175.188H83c-4.4,0-8-3.6-8-8v-72
			c0-4.4,3.6-8,8-8h112c4.4,0,8,3.6,8,8v72c0,4.4-3.6,8-8,8h-38"/>
	</g>
</g>
</svg>
