<?xml version="1.0" encoding="utf-8"?>
<!-- Generator: Adobe Illustrator 16.0.0, SVG Export Plug-In . SVG Version: 6.00 Build 0)  -->
<!DOCTYPE svg PUBLIC "-//W3C//DTD SVG 1.1//EN" "http://www.w3.org/Graphics/SVG/1.1/DTD/svg11.dtd">
<svg version="1.1" id="Layer_15" xmlns="http://www.w3.org/2000/svg" xmlns:xlink="http://www.w3.org/1999/xlink" x="0px" y="0px"
	 width="192px" height="116.305px" viewBox="0 0 192 116.305" enable-background="new 0 0 192 116.305" xml:space="preserve">
<path opacity="0.1" fill="#3900A8" d="M186.012,70.97l-22.649-7.574c-0.962-0.32-1.996-0.496-3.066-0.496V32.278
	c0-4.552-2.958-8.422-7.06-9.771L105.096,6.407c-2.044-0.682-4.243-1.054-6.519-1.054c-2.275,0-4.475,0.372-6.519,1.054
	l-48.14,16.099c-4.103,1.35-7.06,5.22-7.06,9.771V62.9c-1.07,0-2.105,0.176-3.066,0.496L11.143,70.97
	c-1.93,0.635-3.321,2.456-3.321,4.597v26.865c0,2.142,1.391,3.963,3.321,4.599l22.649,7.573c0.961,0.32,1.997,0.496,3.066,0.496
	c1.071,0,2.106-0.176,3.067-0.496l22.649-7.573c0.664-0.219,1.258-0.587,1.761-1.052l27.723,9.271
	c2.044,0.683,4.243,1.055,6.518,1.055c2.275,0,4.476-0.372,6.52-1.055l27.724-9.271c0.502,0.465,1.094,0.833,1.76,1.052
	l22.649,7.573c0.962,0.32,1.997,0.496,3.066,0.496c1.07,0,2.105-0.176,3.066-0.496l22.649-7.573c1.93-0.636,3.321-2.457,3.321-4.599
	V75.567C189.333,73.426,187.941,71.605,186.012,70.97z"/>
<path fill="#5E36BF" d="M33.002,108.037c-0.414,0-0.75-0.336-0.75-0.75V81.214c0-2.518,1.604-4.736,3.99-5.521l21.837-7.303
	c0.393-0.132,0.818,0.081,0.949,0.474s-0.081,0.818-0.474,0.949l-21.84,7.304c-1.773,0.584-2.962,2.229-2.962,4.098v26.073
	C33.752,107.701,33.416,108.037,33.002,108.037z"/>
<path fill="#5E36BF" d="M33.002,113.197c-1.176,0-2.335-0.188-3.445-0.557l-23.695-7.925c-2.383-0.784-3.987-3.004-3.987-5.521
	V72.457c0-0.414,0.336-0.75,0.75-0.75s0.75,0.336,0.75,0.75v26.738c0,1.868,1.189,3.515,2.959,4.098l23.698,7.925
	c1.912,0.637,4.028,0.638,5.943-0.001l23.692-7.923c1.773-0.584,2.962-2.231,2.962-4.099V71.09c0-1.868-1.189-3.514-2.958-4.096
	l-23.698-7.925c-1.913-0.637-4.025-0.637-5.943,0L8.96,66.114c-2.836,0.929-3.291,1.44-3.354,1.617
	c0.078,0.15,0.614,0.652,3.332,1.561l19.24,6.436c0.393,0.131,0.605,0.556,0.474,0.949c-0.132,0.392-0.558,0.604-0.949,0.473
	l-19.24-6.435C6.26,69.978,4.11,69.138,4.11,67.696c0-1.451,2.166-2.282,4.383-3.008l0.28-0.093l20.782-6.95
	c2.226-0.741,4.67-0.741,6.892,0l23.695,7.924c2.383,0.784,3.986,3.003,3.986,5.52v28.105c0,2.517-1.603,4.735-3.989,5.521
	l-23.69,7.923C35.337,113.01,34.178,113.197,33.002,113.197z"/>
<path fill="#5E36BF" d="M156.438,108.037c-0.414,0-0.75-0.336-0.75-0.75V81.214c0-2.518,1.604-4.736,3.99-5.521l21.836-7.303
	c0.395-0.13,0.818,0.081,0.949,0.474c0.132,0.393-0.08,0.818-0.473,0.949l-21.84,7.304c-1.773,0.584-2.963,2.229-2.963,4.098v26.073
	C157.188,107.701,156.853,108.037,156.438,108.037z"/>
<path fill="#5E36BF" d="M156.438,113.197c-1.177,0-2.336-0.188-3.446-0.557l-23.694-7.925c-2.384-0.784-3.987-3.004-3.987-5.521
	V72.457c0-0.414,0.336-0.75,0.75-0.75s0.75,0.336,0.75,0.75v26.738c0,1.867,1.189,3.514,2.96,4.098l23.697,7.925
	c1.909,0.637,4.025,0.638,5.944-0.001l23.69-7.923c1.773-0.584,2.963-2.23,2.963-4.099V71.09c0-1.868-1.189-3.514-2.959-4.096
	l-23.698-7.925c-1.912-0.638-4.025-0.638-5.943,0l-21.07,7.046c-2.834,0.929-3.288,1.439-3.353,1.616
	c0.078,0.15,0.614,0.652,3.332,1.561l0.316,0.107l18.923,6.329c0.393,0.131,0.604,0.556,0.473,0.949
	c-0.131,0.393-0.555,0.604-0.949,0.473l-19.238-6.435c-2.202-0.736-4.352-1.575-4.352-3.018c0-1.451,2.164-2.281,4.38-3.007
	l0.282-0.093l20.781-6.95c2.226-0.739,4.67-0.74,6.894,0l23.695,7.924c2.383,0.784,3.986,3.002,3.986,5.52v28.105
	c0,2.517-1.604,4.736-3.99,5.521l-23.688,7.923C158.773,113.01,157.613,113.197,156.438,113.197z"/>
<path fill="#5E36BF" d="M94.72,103.464c-0.829,0-1.5-0.672-1.5-1.5V48.989c0-5.104,3.251-9.604,8.09-11.196l37.55-12.558
	c0.785-0.264,1.636,0.162,1.898,0.947c0.263,0.786-0.161,1.635-0.947,1.898l-37.557,12.56c-3.612,1.189-6.035,4.543-6.035,8.349
	v52.975C96.22,102.792,95.549,103.464,94.72,103.464z"/>
<path fill="#5E36BF" d="M33.002,49.464c-0.829,0-1.5-0.671-1.5-1.5V31.197c0-0.829,0.671-1.5,1.5-1.5s1.5,0.671,1.5,1.5v16.767
	C34.502,48.793,33.831,49.464,33.002,49.464z"/>
<path fill="#5E36BF" d="M94.72,113.947c-2.388,0-4.741-0.381-6.994-1.132l-14.054-4.7c-0.786-0.263-1.21-1.113-0.947-1.898
	c0.263-0.786,1.113-1.21,1.898-0.947l14.053,4.7c3.89,1.297,8.197,1.297,12.088,0l14.053-4.7c0.785-0.264,1.637,0.162,1.898,0.947
	c0.263,0.785-0.161,1.636-0.947,1.898l-14.054,4.7C99.462,113.566,97.109,113.947,94.72,113.947z"/>
<path fill="#5E36BF" d="M156.438,49.464c-0.828,0-1.5-0.671-1.5-1.5V28.42c0-3.806-2.423-7.16-6.028-8.347L100.763,3.973
	c-3.888-1.297-8.197-1.296-12.087,0L45.858,18.29c-5.489,1.798-6.593,2.828-6.798,3.236c0.23,0.475,1.454,1.489,6.767,3.264
	l0.636,0.214l38.448,12.859c0.786,0.263,1.21,1.112,0.947,1.898c-0.263,0.786-1.112,1.211-1.898,0.947L44.876,27.635
	c-4.47-1.493-8.834-3.195-8.834-6.11c0-2.931,4.388-4.613,8.882-6.086l0.578-0.19L87.725,1.128c4.505-1.504,9.486-1.503,13.988,0
	l48.142,16.099c4.833,1.59,8.084,6.089,8.084,11.194v19.544C157.938,48.793,157.267,49.464,156.438,49.464z"/>
</svg>
