<?xml version="1.0" encoding="utf-8"?>
<!-- Generator: Adobe Illustrator 16.0.3, SVG Export Plug-In . SVG Version: 6.00 Build 0)  -->
<!DOCTYPE svg PUBLIC "-//W3C//DTD SVG 1.1//EN" "http://www.w3.org/Graphics/SVG/1.1/DTD/svg11.dtd">
<svg version="1.1" xmlns="http://www.w3.org/2000/svg" xmlns:xlink="http://www.w3.org/1999/xlink" x="0px" y="0px" width="90px"
	 height="60px" viewBox="0 0 90 60" enable-background="new 0 0 90 60" xml:space="preserve">
<g id="CCTV">
	<linearGradient id="SVGID_4_" gradientUnits="userSpaceOnUse" x1="21" y1="30" x2="69" y2="30">
		<stop  offset="0" style="stop-color:#5421D6"/>
		<stop  offset="1" style="stop-color:#B12BE3"/>
	</linearGradient>
	<path fill="url(#SVGID_4_)" d="M45,43c3.313,0,6-2.687,6-6s-2.687-6-6-6s-6,2.687-6,6S41.687,43,45,43z M45,33c2.206,0,4,1.794,4,4
		s-1.794,4-4,4c-2.206,0-4-1.794-4-4S42.794,33,45,33z M43,37c0-1.104,0.896-2,2-2s2,0.896,2,2s-0.896,2-2,2S43,38.104,43,37z
		 M64,12H26c-2.762,0-5,2.238-5,5v6c0,2.419,1.718,4.436,4,4.899V28c0,11.028,8.972,20,20,20c11.028,0,20-8.972,20-20v-0.101
		c2.282-0.463,4-2.48,4-4.899v-6C69,14.238,66.762,12,64,12z M45,46.188C35.075,46.188,27.313,38,27,28h36
		C63.313,38,54.925,46.188,45,46.188z M67,23c0,1.654-1.346,3-3,3H26c-1.654,0-3-1.346-3-3v-6c0-1.654,1.346-3,3-3h38
		c1.654,0,3,1.346,3,3V23z M26,22c-0.552,0-1-0.448-1-1v-2c0-1.654,1.346-3,3-3h9c0.552,0,1,0.448,1,1s-0.448,1-1,1h-9
		c-0.551,0-1,0.449-1,1v2C27,21.552,26.552,22,26,22z"/>
</g>
</svg>
