<?xml version="1.0" encoding="utf-8"?>
<!-- Generator: Adobe Illustrator 16.0.3, SVG Export Plug-In . SVG Version: 6.00 Build 0)  -->
<!DOCTYPE svg PUBLIC "-//W3C//DTD SVG 1.1//EN" "http://www.w3.org/Graphics/SVG/1.1/DTD/svg11.dtd">
<svg version="1.1" xmlns="http://www.w3.org/2000/svg" xmlns:xlink="http://www.w3.org/1999/xlink" x="0px" y="0px" width="192px"
	 height="144px" viewBox="0 0 192 144" enable-background="new 0 0 192 144" xml:space="preserve">
<g id="Layer_1_copy">
	<path opacity="0.1" fill-rule="evenodd" clip-rule="evenodd" fill="#6B21D6" d="M101,141c-32,0-48-10-48-10
		c0-21.687,13.708-27.856,20-30c10.573-3.602,14-6.631,14-12c0,0.664,0.042,0.125,0.166-1.207C83.068,83.503,80,78.117,80,74
		c-1.108-0.005-5.285-3.396-6-11c-0.506-5.376,2-4,2-4s-2.887-5.913-3-10c-0.498-18,14.424-27,27-27s16,9,16,9s7.297,0,10,10
		s1.15,12.613-2,19c1.536-0.977,4.788-1.595,3,5c-2.2,8.115-5.735,7.395-7,14c-0.648,3.39-2.562,6.547-5.133,9.151
		C114.966,89.217,115,89.602,115,89c0,5.369,3.427,8.398,14,12c6.291,2.144,20,8.313,20,30C149,131,133,141,101,141z"/>
	<path fill="#6B21D6" d="M191.502,113c0,0.259-0.133,0.499-0.353,0.636c-0.393,0.245-9.824,6.035-28.708,8.757
		c-0.037,0.006-0.073,0.008-0.108,0.008c-0.367,0-0.688-0.27-0.741-0.643c-0.06-0.41,0.226-0.791,0.635-0.85
		c16.548-2.385,25.891-7.274,27.773-8.338c-0.125-14.786-6.681-24.496-19.491-28.86C159.662,80.016,156,76.809,156,71
		c0-0.001,0.076-0.389,0.225-0.535c2.311-2.275,4.059-5.776,4.791-9.606c0.656-3.431,1.909-5.009,3.235-6.68
		c1.327-1.672,2.7-3.402,3.777-7.375c0.956-3.526,0.28-4.352,0.051-4.521c-0.417-0.31-1.286-0.058-1.925,0.35
		c-0.282,0.181-0.652,0.15-0.903-0.075c-0.25-0.225-0.32-0.588-0.172-0.89l0.307-0.62c2.872-5.806,4.183-8.456,1.643-17.853
		c-2.524-9.338-9.209-9.446-9.276-9.446c-0.31,0-0.589-0.192-0.7-0.481c-0.135-0.348-3.426-8.519-15.3-8.519
		c-9.597,0-18.664,5.036-23.101,12.83c-0.203,0.359-0.661,0.487-1.022,0.281c-0.36-0.205-0.485-0.663-0.28-1.023
		c4.697-8.254,14.276-13.588,24.403-13.588c11.31,0,15.578,7.168,16.5,9.041c1.779,0.22,7.82,1.62,10.224,10.514
		c2.526,9.344,1.371,12.553-1.227,17.857c0.609-0.062,1.21,0.038,1.72,0.414c1.216,0.895,1.381,2.897,0.507,6.121
		c-1.158,4.272-2.694,6.208-4.05,7.916c-1.261,1.588-2.35,2.96-2.938,6.029c-0.763,3.988-2.572,7.654-4.974,10.138
		c0.129,4.83,3.584,7.641,13.479,11.011C187.944,88.065,191.502,102.178,191.502,113z M145.5,126c0,0.518-0.267,0.998-0.705,1.272
		C144.127,127.689,128.062,137.5,96,137.5s-48.127-9.811-48.795-10.228c-0.438-0.274-0.705-0.755-0.705-1.272
		c0-11.067,3.646-25.502,21.016-31.42C78.492,90.842,80.5,88.084,80.5,84c0-0.219,0.049-0.425,0.133-0.612
		c-3.822-4.178-6.646-9.238-7.076-13.333c-2.325-1.284-5.431-5.327-6.05-11.914c-0.229-2.43,0.065-4.001,0.925-4.946
		c0.124-0.136,0.259-0.257,0.404-0.362c-0.908-2.168-2.254-5.852-2.335-8.791c-0.215-7.767,2.332-14.607,7.364-19.78
		C79.201,18.775,87.102,15.5,95,15.5c11.225,0,15.724,6.652,16.997,9.094c2.329,0.37,8.063,2.178,10.451,11.014
		c2.438,9.021,1.536,12.479-0.797,17.389c0.642,0.164,1.193,0.524,1.598,1.053c0.967,1.263,1.029,3.278,0.198,6.342
		c-1.198,4.421-2.785,6.421-4.187,8.186c-1.248,1.573-2.234,2.815-2.787,5.704c-0.675,3.526-2.53,6.725-5.013,9.39
		c0.024,0.105,0.039,0.215,0.039,0.328c0,4.084,2.008,6.842,12.983,10.58C141.854,100.499,145.5,114.934,145.5,126z M76.5,69
		c0,7.472,11.411,19.5,18.5,19.5c7.259,0,16.933-6.457,18.526-14.782c0.691-3.612,2.061-5.337,3.385-7.005
		c1.28-1.613,2.604-3.281,3.642-7.105c0.818-3.021,0.318-3.729,0.313-3.735c-0.302,0.024-0.714,0.173-1.062,0.394
		c-0.566,0.361-1.305,0.3-1.807-0.149c-0.5-0.449-0.641-1.177-0.344-1.78l0.307-0.621c2.869-5.8,4.057-8.201,1.591-17.324
		c-2.347-8.684-8.312-8.887-8.564-8.892c-0.613-0.011-1.171-0.394-1.39-0.967C109.472,26.212,106.317,18.5,95,18.5
		c-7.104,0-14.202,2.936-18.985,7.853c-4.454,4.579-6.707,10.667-6.515,17.605c0.103,3.709,2.821,9.328,2.849,9.384
		c0.3,0.616,0.217,1.402-0.305,1.846c-0.439,0.373-0.993,0.487-1.488,0.281c-0.09,0.333-0.189,1.036-0.062,2.391
		c0.594,6.309,3.735,9.299,4.65,9.647C75.905,67.579,76.5,68.22,76.5,69z M142.492,125.13c-0.249-14.183-6.63-23.503-18.976-27.71
		c-8.44-2.875-13.717-5.752-14.8-11.217C104.567,89.498,99.46,91.5,95,91.5c-3.803,0-8.009-2.245-11.687-5.48
		c-1.001,5.583-6.296,8.494-14.829,11.4c-12.346,4.206-18.727,13.527-18.976,27.711C52.92,126.972,68.553,134.5,96,134.5
		C123.442,134.5,139.076,126.974,142.492,125.13z M76.75,50c0-5.306,3.472-6.25,13.25-6.25c7.544,0,8.475-0.798,12.949-4.632
		c1.304-1.117,2.907-2.492,5.091-4.199c4.74,3.079,7.21,5.256,7.21,13.081c0,0.414,0.336,0.75,0.75,0.75s0.75-0.336,0.75-0.75
		c0-8.813-3.171-11.301-8.344-14.631c-0.268-0.172-0.614-0.158-0.865,0.038c-2.429,1.881-4.17,3.373-5.568,4.571
		C97.653,41.681,96.989,42.25,90,42.25c-8.637,0-14.75,0.556-14.75,7.75c0,0.414,0.336,0.75,0.75,0.75S76.75,50.414,76.75,50z
		 M70.666,15.363c-2.464-2.424-5.094-2.961-6.169-3.079C63.567,10.399,59.295,3.25,48,3.25c-7.7,0-15.4,3.19-20.598,8.534
		c-4.888,5.025-7.36,11.677-7.151,19.236c0.086,3.135,1.689,7.194,2.547,9.155c-0.15,0.046-0.301,0.115-0.447,0.211
		c-0.975,0.64-1.333,2.172-1.097,4.683c0.634,6.745,4.045,10.638,6.013,11.498c0.246,4.329,3.205,10.595,6.971,14.713
		c-0.125,4.872-3.58,7.706-13.481,11.103C3.808,88.197,0.25,102.408,0.25,113.307c0,0.258,0.132,0.497,0.351,0.635
		c0.392,0.247,9.824,6.079,28.709,8.819c0.037,0.005,0.073,0.008,0.109,0.008c0.367,0,0.687-0.269,0.741-0.643
		c0.06-0.409-0.225-0.79-0.634-0.85c-16.554-2.402-25.897-7.329-27.774-8.397c0.123-14.899,6.804-24.682,19.617-29.077
		C32.198,80.087,36,76.861,36,71.034c0-0.002-0.289-0.431-0.392-0.541c-3.747-3.98-6.827-10.482-6.827-14.493
		c0-0.413-0.337-0.748-0.75-0.75c-0.737-0.083-4.604-3.169-5.276-10.321c-0.252-2.681,0.304-3.208,0.419-3.286
		c0.18-0.123,0.467,0.014,0.468,0.014l-0.001,0c0.286,0.157,0.64,0.111,0.878-0.114c0.236-0.226,0.299-0.578,0.156-0.872
		c-0.027-0.058-2.817-5.812-2.924-9.691c-0.197-7.146,2.129-13.422,6.728-18.149C33.399,7.771,40.697,4.75,48,4.75
		c11.874,0,15.166,8.17,15.3,8.519c0.111,0.289,0.39,0.481,0.7,0.481c0.029,0,2.919,0.031,5.614,2.682
		c0.295,0.29,0.77,0.287,1.061-0.009C70.965,16.128,70.961,15.653,70.666,15.363z"/>
</g>
</svg>
