<?xml version="1.0" encoding="utf-8"?>
<!-- Generator: Adobe Illustrator 16.0.0, SVG Export Plug-In . SVG Version: 6.00 Build 0)  -->
<!DOCTYPE svg PUBLIC "-//W3C//DTD SVG 1.1//EN" "http://www.w3.org/Graphics/SVG/1.1/DTD/svg11.dtd">
<svg version="1.1" xmlns="http://www.w3.org/2000/svg" xmlns:xlink="http://www.w3.org/1999/xlink" x="0px" y="0px" width="288px"
	 height="179px" viewBox="0 0 288 179" enable-background="new 0 0 288 179" xml:space="preserve">
<g id="Layer_2" display="none">
</g>
<g id="Layer_1" display="none">
</g>
<g id="Layer_3" display="none">
	<g display="inline">
		<g>
			<g>
				<path fill="#FFFFFF" d="M68,52v127H39V52c0-2.21,1.79-4,4-4h21C66.21,48,68,49.79,68,52z"/>
			</g>
			<g opacity="0.5">
				<path fill="#6B21D6" d="M68,52v127H39V52c0-2.21,1.79-4,4-4h21C66.21,48,68,49.79,68,52z"/>
			</g>
			<g>
				<path fill="#6B21D6" d="M64,50c1.103,0,2,0.897,2,2v125H41V52c0-1.103,0.897-2,2-2H64 M64,48H43c-2.21,0-4,1.79-4,4v127h29V52
					C68,49.79,66.21,48,64,48L64,48z"/>
			</g>
			<g>
				<path fill="#6B21D6" d="M55,57c0,0.552-0.448,1-1,1h-9c-0.552,0-1-0.448-1-1l0,0c0-0.552,0.448-1,1-1h9
					C54.552,56,55,56.448,55,57L55,57z"/>
				<path fill="#6B21D6" d="M55,62c0,0.552-0.448,1-1,1h-9c-0.552,0-1-0.448-1-1l0,0c0-0.552,0.448-1,1-1h9
					C54.552,61,55,61.448,55,62L55,62z"/>
				<path fill="#6B21D6" d="M55,67c0,0.552-0.448,1-1,1h-9c-0.552,0-1-0.448-1-1l0,0c0-0.552,0.448-1,1-1h9
					C54.552,66,55,66.448,55,67L55,67z"/>
				<path fill="#6B21D6" d="M55,72c0,0.553-0.448,1-1,1h-9c-0.552,0-1-0.447-1-1l0,0c0-0.553,0.448-1,1-1h9
					C54.552,71,55,71.447,55,72L55,72z"/>
				<path fill="#6B21D6" d="M55,77c0,0.553-0.448,1-1,1h-9c-0.552,0-1-0.447-1-1l0,0c0-0.553,0.448-1,1-1h9
					C54.552,76,55,76.447,55,77L55,77z"/>
				<path fill="#6B21D6" d="M55,82c0,0.553-0.448,1-1,1h-9c-0.552,0-1-0.447-1-1l0,0c0-0.553,0.448-1,1-1h9
					C54.552,81,55,81.447,55,82L55,82z"/>
				<path fill="#6B21D6" d="M55,87c0,0.553-0.448,1-1,1h-9c-0.552,0-1-0.447-1-1l0,0c0-0.553,0.448-1,1-1h9
					C54.552,86,55,86.447,55,87L55,87z"/>
				<path fill="#6B21D6" d="M55,92c0,0.553-0.448,1-1,1h-9c-0.552,0-1-0.447-1-1l0,0c0-0.553,0.448-1,1-1h9
					C54.552,91,55,91.447,55,92L55,92z"/>
				<path fill="#6B21D6" d="M55,97c0,0.553-0.448,1-1,1h-9c-0.552,0-1-0.447-1-1l0,0c0-0.553,0.448-1,1-1h9
					C54.552,96,55,96.447,55,97L55,97z"/>
				<path fill="#6B21D6" d="M55,102c0,0.553-0.448,1-1,1h-9c-0.552,0-1-0.447-1-1l0,0c0-0.553,0.448-1,1-1h9
					C54.552,101,55,101.447,55,102L55,102z"/>
				<path fill="#6B21D6" d="M55,107c0,0.553-0.448,1-1,1h-9c-0.552,0-1-0.447-1-1l0,0c0-0.553,0.448-1,1-1h9
					C54.552,106,55,106.447,55,107L55,107z"/>
				<path fill="#6B21D6" d="M55,112c0,0.553-0.448,1-1,1h-9c-0.552,0-1-0.447-1-1l0,0c0-0.553,0.448-1,1-1h9
					C54.552,111,55,111.447,55,112L55,112z"/>
				<path fill="#6B21D6" d="M55,117c0,0.553-0.448,1-1,1h-9c-0.552,0-1-0.447-1-1l0,0c0-0.553,0.448-1,1-1h9
					C54.552,116,55,116.447,55,117L55,117z"/>
				<path fill="#6B21D6" d="M55,122c0,0.553-0.448,1-1,1h-9c-0.552,0-1-0.447-1-1l0,0c0-0.553,0.448-1,1-1h9
					C54.552,121,55,121.447,55,122L55,122z"/>
				<path fill="#6B21D6" d="M55,127c0,0.553-0.448,1-1,1h-9c-0.552,0-1-0.447-1-1l0,0c0-0.553,0.448-1,1-1h9
					C54.552,126,55,126.447,55,127L55,127z"/>
				<path fill="#6B21D6" d="M55,132c0,0.553-0.448,1-1,1h-9c-0.552,0-1-0.447-1-1l0,0c0-0.553,0.448-1,1-1h9
					C54.552,131,55,131.447,55,132L55,132z"/>
				<path fill="#6B21D6" d="M55,137c0,0.553-0.448,1-1,1h-9c-0.552,0-1-0.447-1-1l0,0c0-0.553,0.448-1,1-1h9
					C54.552,136,55,136.447,55,137L55,137z"/>
				<path fill="#6B21D6" d="M55,142c0,0.553-0.448,1-1,1h-9c-0.552,0-1-0.447-1-1l0,0c0-0.553,0.448-1,1-1h9
					C54.552,141,55,141.447,55,142L55,142z"/>
				<path fill="#6B21D6" d="M55,147c0,0.553-0.448,1-1,1h-9c-0.552,0-1-0.447-1-1l0,0c0-0.553,0.448-1,1-1h9
					C54.552,146,55,146.447,55,147L55,147z"/>
				<path fill="#6B21D6" d="M55,152c0,0.553-0.448,1-1,1h-9c-0.552,0-1-0.447-1-1l0,0c0-0.553,0.448-1,1-1h9
					C54.552,151,55,151.447,55,152L55,152z"/>
				<path fill="#6B21D6" d="M55,157c0,0.553-0.448,1-1,1h-9c-0.552,0-1-0.447-1-1l0,0c0-0.553,0.448-1,1-1h9
					C54.552,156,55,156.447,55,157L55,157z"/>
				<path fill="#6B21D6" d="M55,162c0,0.553-0.448,1-1,1h-9c-0.552,0-1-0.447-1-1l0,0c0-0.553,0.448-1,1-1h9
					C54.552,161,55,161.447,55,162L55,162z"/>
				<path fill="#6B21D6" d="M55,167c0,0.553-0.448,1-1,1h-9c-0.552,0-1-0.447-1-1l0,0c0-0.553,0.448-1,1-1h9
					C54.552,166,55,166.447,55,167L55,167z"/>
				<path fill="#6B21D6" d="M55,172c0,0.553-0.448,1-1,1h-9c-0.552,0-1-0.447-1-1l0,0c0-0.553,0.448-1,1-1h9
					C54.552,171,55,171.447,55,172L55,172z"/>
			</g>
		</g>
		<g>
			<g>
				<path fill="#FCFCFC" d="M198,87v92h-25V87c0-2.21,1.79-4,4-4h17C196.21,83,198,84.79,198,87z"/>
			</g>
			<g opacity="0.5">
				<path fill="#6B21D6" d="M198,87v92h-25V87c0-2.21,1.79-4,4-4h17C196.21,83,198,84.79,198,87z"/>
			</g>
			<g>
				<path fill="#6B21D6" d="M194,85c1.103,0,2,0.897,2,2v90h-21V87c0-1.103,0.897-2,2-2H194 M194,83h-17c-2.21,0-4,1.79-4,4v92h25
					V87C198,84.79,196.21,83,194,83L194,83z"/>
			</g>
			<g>
				<path fill="#6B21D6" d="M190,91c0,0.553-0.447,1-1,1h-9c-0.553,0-1-0.447-1-1l0,0c0-0.553,0.447-1,1-1h9
					C189.553,90,190,90.447,190,91L190,91z"/>
				<path fill="#6B21D6" d="M190,96c0,0.553-0.447,1-1,1h-9c-0.553,0-1-0.447-1-1l0,0c0-0.553,0.447-1,1-1h9
					C189.553,95,190,95.447,190,96L190,96z"/>
				<path fill="#6B21D6" d="M190,101c0,0.553-0.447,1-1,1h-9c-0.553,0-1-0.447-1-1l0,0c0-0.553,0.447-1,1-1h9
					C189.553,100,190,100.447,190,101L190,101z"/>
				<path fill="#6B21D6" d="M190,106c0,0.553-0.447,1-1,1h-9c-0.553,0-1-0.447-1-1l0,0c0-0.553,0.447-1,1-1h9
					C189.553,105,190,105.447,190,106L190,106z"/>
				<path fill="#6B21D6" d="M190,111c0,0.553-0.447,1-1,1h-9c-0.553,0-1-0.447-1-1l0,0c0-0.553,0.447-1,1-1h9
					C189.553,110,190,110.447,190,111L190,111z"/>
				<path fill="#6B21D6" d="M190,116c0,0.553-0.447,1-1,1h-9c-0.553,0-1-0.447-1-1l0,0c0-0.553,0.447-1,1-1h9
					C189.553,115,190,115.447,190,116L190,116z"/>
				<path fill="#6B21D6" d="M190,121c0,0.553-0.447,1-1,1h-9c-0.553,0-1-0.447-1-1l0,0c0-0.553,0.447-1,1-1h9
					C189.553,120,190,120.447,190,121L190,121z"/>
				<path fill="#6B21D6" d="M190,126c0,0.553-0.447,1-1,1h-9c-0.553,0-1-0.447-1-1l0,0c0-0.553,0.447-1,1-1h9
					C189.553,125,190,125.447,190,126L190,126z"/>
				<path fill="#6B21D6" d="M190,131c0,0.553-0.447,1-1,1h-9c-0.553,0-1-0.447-1-1l0,0c0-0.553,0.447-1,1-1h9
					C189.553,130,190,130.447,190,131L190,131z"/>
				<path fill="#6B21D6" d="M190,136c0,0.553-0.447,1-1,1h-9c-0.553,0-1-0.447-1-1l0,0c0-0.553,0.447-1,1-1h9
					C189.553,135,190,135.447,190,136L190,136z"/>
				<path fill="#6B21D6" d="M190,141c0,0.553-0.447,1-1,1h-9c-0.553,0-1-0.447-1-1l0,0c0-0.553,0.447-1,1-1h9
					C189.553,140,190,140.447,190,141L190,141z"/>
				<path fill="#6B21D6" d="M190,146c0,0.553-0.447,1-1,1h-9c-0.553,0-1-0.447-1-1l0,0c0-0.553,0.447-1,1-1h9
					C189.553,145,190,145.447,190,146L190,146z"/>
				<path fill="#6B21D6" d="M190,151c0,0.553-0.447,1-1,1h-9c-0.553,0-1-0.447-1-1l0,0c0-0.553,0.447-1,1-1h9
					C189.553,150,190,150.447,190,151L190,151z"/>
				<path fill="#6B21D6" d="M190,156c0,0.553-0.447,1-1,1h-9c-0.553,0-1-0.447-1-1l0,0c0-0.553,0.447-1,1-1h9
					C189.553,155,190,155.447,190,156L190,156z"/>
				<path fill="#6B21D6" d="M190,161c0,0.553-0.447,1-1,1h-9c-0.553,0-1-0.447-1-1l0,0c0-0.553,0.447-1,1-1h9
					C189.553,160,190,160.447,190,161L190,161z"/>
				<path fill="#6B21D6" d="M190,166c0,0.553-0.447,1-1,1h-9c-0.553,0-1-0.447-1-1l0,0c0-0.553,0.447-1,1-1h9
					C189.553,165,190,165.447,190,166L190,166z"/>
				<path fill="#6B21D6" d="M190,171c0,0.553-0.447,1-1,1h-9c-0.553,0-1-0.447-1-1l0,0c0-0.553,0.447-1,1-1h9
					C189.553,170,190,170.447,190,171L190,171z"/>
			</g>
		</g>
		<g>
			<g>
				<path fill="#FFFFFF" d="M176,81c0,2.209-1.791,4-4,4h-28c-2.209,0-4-1.791-4-4v-9c0-2.209,1.791-4,4-4h28c2.209,0,4,1.791,4,4
					V81z"/>
			</g>
			<g opacity="0.25">
				<path fill="#6B21D6" d="M176,81c0,2.209-1.791,4-4,4h-28c-2.209,0-4-1.791-4-4v-9c0-2.209,1.791-4,4-4h28c2.209,0,4,1.791,4,4
					V81z"/>
			</g>
			<g>
				<path fill="#6B21D6" d="M172,70c1.103,0,2,0.897,2,2v9c0,1.103-0.897,2-2,2h-28c-1.103,0-2-0.897-2-2v-9c0-1.103,0.897-2,2-2
					H172 M172,68h-28c-2.209,0-4,1.791-4,4v9c0,2.209,1.791,4,4,4h28c2.209,0,4-1.791,4-4v-9C176,69.791,174.209,68,172,68L172,68z"
					/>
			</g>
			<g>
				<path fill="#FFFFFF" d="M184,81v96c0,0.73-0.2,1.41-0.54,2h-50.92c-0.34-0.59-0.54-1.27-0.54-2V81c0-2.21,1.79-4,4-4h44
					C182.21,77,184,78.79,184,81z"/>
			</g>
			<g opacity="0.1">
				<path fill="#6B21D6" d="M184,81v96c0,0.73-0.2,1.41-0.54,2h-50.92c-0.34-0.59-0.54-1.27-0.54-2V81c0-2.21,1.79-4,4-4h44
					C182.21,77,184,78.79,184,81z"/>
			</g>
			<g>
				<path fill="#6B21D6" d="M180,79c1.103,0,2,0.897,2,2v96h-48V81c0-1.103,0.897-2,2-2H180 M180,77h-44c-2.21,0-4,1.79-4,4v96
					c0,0.73,0.2,1.41,0.54,2h50.92c0.34-0.59,0.54-1.27,0.54-2V81C184,78.79,182.21,77,180,77L180,77z"/>
			</g>
			<g>
				<path fill="#6B21D6" d="M173,91c-0.553,0-1-0.447-1-1v-4c0-0.553,0.447-1,1-1l0,0c0.553,0,1,0.447,1,1v4
					C174,90.553,173.553,91,173,91L173,91z"/>
				<path fill="#6B21D6" d="M173,101c-0.553,0-1-0.447-1-1v-4c0-0.553,0.447-1,1-1l0,0c0.553,0,1,0.447,1,1v4
					C174,100.553,173.553,101,173,101L173,101z"/>
				<path fill="#6B21D6" d="M173,111c-0.553,0-1-0.447-1-1v-4c0-0.553,0.447-1,1-1l0,0c0.553,0,1,0.447,1,1v4
					C174,110.553,173.553,111,173,111L173,111z"/>
				<path fill="#6B21D6" d="M173,121c-0.553,0-1-0.447-1-1v-4c0-0.553,0.447-1,1-1l0,0c0.553,0,1,0.447,1,1v4
					C174,120.553,173.553,121,173,121L173,121z"/>
				<path fill="#6B21D6" d="M173,131c-0.553,0-1-0.447-1-1v-4c0-0.553,0.447-1,1-1l0,0c0.553,0,1,0.447,1,1v4
					C174,130.553,173.553,131,173,131L173,131z"/>
				<path fill="#6B21D6" d="M173,141c-0.553,0-1-0.447-1-1v-4c0-0.553,0.447-1,1-1l0,0c0.553,0,1,0.447,1,1v4
					C174,140.553,173.553,141,173,141L173,141z"/>
				<path fill="#6B21D6" d="M173,151c-0.553,0-1-0.447-1-1v-4c0-0.553,0.447-1,1-1l0,0c0.553,0,1,0.447,1,1v4
					C174,150.553,173.553,151,173,151L173,151z"/>
				<path fill="#6B21D6" d="M173,161c-0.553,0-1-0.447-1-1v-4c0-0.553,0.447-1,1-1l0,0c0.553,0,1,0.447,1,1v4
					C174,160.553,173.553,161,173,161L173,161z"/>
				<path fill="#6B21D6" d="M173,171c-0.553,0-1-0.447-1-1v-4c0-0.553,0.447-1,1-1l0,0c0.553,0,1,0.447,1,1v4
					C174,170.553,173.553,171,173,171L173,171z"/>
				<path fill="#6B21D6" d="M167,91c-0.553,0-1-0.447-1-1v-4c0-0.553,0.447-1,1-1l0,0c0.553,0,1,0.447,1,1v4
					C168,90.553,167.553,91,167,91L167,91z"/>
				<path fill="#6B21D6" d="M167,101c-0.553,0-1-0.447-1-1v-4c0-0.553,0.447-1,1-1l0,0c0.553,0,1,0.447,1,1v4
					C168,100.553,167.553,101,167,101L167,101z"/>
				<path fill="#6B21D6" d="M167,111c-0.553,0-1-0.447-1-1v-4c0-0.553,0.447-1,1-1l0,0c0.553,0,1,0.447,1,1v4
					C168,110.553,167.553,111,167,111L167,111z"/>
				<path fill="#6B21D6" d="M167,121c-0.553,0-1-0.447-1-1v-4c0-0.553,0.447-1,1-1l0,0c0.553,0,1,0.447,1,1v4
					C168,120.553,167.553,121,167,121L167,121z"/>
				<path fill="#6B21D6" d="M167,131c-0.553,0-1-0.447-1-1v-4c0-0.553,0.447-1,1-1l0,0c0.553,0,1,0.447,1,1v4
					C168,130.553,167.553,131,167,131L167,131z"/>
				<path fill="#6B21D6" d="M167,141c-0.553,0-1-0.447-1-1v-4c0-0.553,0.447-1,1-1l0,0c0.553,0,1,0.447,1,1v4
					C168,140.553,167.553,141,167,141L167,141z"/>
				<path fill="#6B21D6" d="M167,151c-0.553,0-1-0.447-1-1v-4c0-0.553,0.447-1,1-1l0,0c0.553,0,1,0.447,1,1v4
					C168,150.553,167.553,151,167,151L167,151z"/>
				<path fill="#6B21D6" d="M167,161c-0.553,0-1-0.447-1-1v-4c0-0.553,0.447-1,1-1l0,0c0.553,0,1,0.447,1,1v4
					C168,160.553,167.553,161,167,161L167,161z"/>
				<path fill="#6B21D6" d="M167,171c-0.553,0-1-0.447-1-1v-4c0-0.553,0.447-1,1-1l0,0c0.553,0,1,0.447,1,1v4
					C168,170.553,167.553,171,167,171L167,171z"/>
				<path fill="#6B21D6" d="M161,91c-0.553,0-1-0.447-1-1v-4c0-0.553,0.447-1,1-1l0,0c0.553,0,1,0.447,1,1v4
					C162,90.553,161.553,91,161,91L161,91z"/>
				<path fill="#6B21D6" d="M161,101c-0.553,0-1-0.447-1-1v-4c0-0.553,0.447-1,1-1l0,0c0.553,0,1,0.447,1,1v4
					C162,100.553,161.553,101,161,101L161,101z"/>
				<path fill="#6B21D6" d="M161,111c-0.553,0-1-0.447-1-1v-4c0-0.553,0.447-1,1-1l0,0c0.553,0,1,0.447,1,1v4
					C162,110.553,161.553,111,161,111L161,111z"/>
				<path fill="#6B21D6" d="M161,121c-0.553,0-1-0.447-1-1v-4c0-0.553,0.447-1,1-1l0,0c0.553,0,1,0.447,1,1v4
					C162,120.553,161.553,121,161,121L161,121z"/>
				<path fill="#6B21D6" d="M161,131c-0.553,0-1-0.447-1-1v-4c0-0.553,0.447-1,1-1l0,0c0.553,0,1,0.447,1,1v4
					C162,130.553,161.553,131,161,131L161,131z"/>
				<path fill="#6B21D6" d="M161,141c-0.553,0-1-0.447-1-1v-4c0-0.553,0.447-1,1-1l0,0c0.553,0,1,0.447,1,1v4
					C162,140.553,161.553,141,161,141L161,141z"/>
				<path fill="#6B21D6" d="M161,151c-0.553,0-1-0.447-1-1v-4c0-0.553,0.447-1,1-1l0,0c0.553,0,1,0.447,1,1v4
					C162,150.553,161.553,151,161,151L161,151z"/>
				<path fill="#6B21D6" d="M161,161c-0.553,0-1-0.447-1-1v-4c0-0.553,0.447-1,1-1l0,0c0.553,0,1,0.447,1,1v4
					C162,160.553,161.553,161,161,161L161,161z"/>
				<path fill="#6B21D6" d="M161,171c-0.553,0-1-0.447-1-1v-4c0-0.553,0.447-1,1-1l0,0c0.553,0,1,0.447,1,1v4
					C162,170.553,161.553,171,161,171L161,171z"/>
				<path fill="#6B21D6" d="M155,91c-0.553,0-1-0.447-1-1v-4c0-0.553,0.447-1,1-1l0,0c0.553,0,1,0.447,1,1v4
					C156,90.553,155.553,91,155,91L155,91z"/>
				<path fill="#6B21D6" d="M155,101c-0.553,0-1-0.447-1-1v-4c0-0.553,0.447-1,1-1l0,0c0.553,0,1,0.447,1,1v4
					C156,100.553,155.553,101,155,101L155,101z"/>
				<path fill="#6B21D6" d="M155,111c-0.553,0-1-0.447-1-1v-4c0-0.553,0.447-1,1-1l0,0c0.553,0,1,0.447,1,1v4
					C156,110.553,155.553,111,155,111L155,111z"/>
				<path fill="#6B21D6" d="M155,121c-0.553,0-1-0.447-1-1v-4c0-0.553,0.447-1,1-1l0,0c0.553,0,1,0.447,1,1v4
					C156,120.553,155.553,121,155,121L155,121z"/>
				<path fill="#6B21D6" d="M155,131c-0.553,0-1-0.447-1-1v-4c0-0.553,0.447-1,1-1l0,0c0.553,0,1,0.447,1,1v4
					C156,130.553,155.553,131,155,131L155,131z"/>
				<path fill="#6B21D6" d="M155,141c-0.553,0-1-0.447-1-1v-4c0-0.553,0.447-1,1-1l0,0c0.553,0,1,0.447,1,1v4
					C156,140.553,155.553,141,155,141L155,141z"/>
				<path fill="#6B21D6" d="M155,151c-0.553,0-1-0.447-1-1v-4c0-0.553,0.447-1,1-1l0,0c0.553,0,1,0.447,1,1v4
					C156,150.553,155.553,151,155,151L155,151z"/>
				<path fill="#6B21D6" d="M155,161c-0.553,0-1-0.447-1-1v-4c0-0.553,0.447-1,1-1l0,0c0.553,0,1,0.447,1,1v4
					C156,160.553,155.553,161,155,161L155,161z"/>
				<path fill="#6B21D6" d="M155,171c-0.553,0-1-0.447-1-1v-4c0-0.553,0.447-1,1-1l0,0c0.553,0,1,0.447,1,1v4
					C156,170.553,155.553,171,155,171L155,171z"/>
				<path fill="#6B21D6" d="M149,91c-0.553,0-1-0.447-1-1v-4c0-0.553,0.447-1,1-1l0,0c0.553,0,1,0.447,1,1v4
					C150,90.553,149.553,91,149,91L149,91z"/>
				<path fill="#6B21D6" d="M149,101c-0.553,0-1-0.447-1-1v-4c0-0.553,0.447-1,1-1l0,0c0.553,0,1,0.447,1,1v4
					C150,100.553,149.553,101,149,101L149,101z"/>
				<path fill="#6B21D6" d="M149,111c-0.553,0-1-0.447-1-1v-4c0-0.553,0.447-1,1-1l0,0c0.553,0,1,0.447,1,1v4
					C150,110.553,149.553,111,149,111L149,111z"/>
				<path fill="#6B21D6" d="M149,121c-0.553,0-1-0.447-1-1v-4c0-0.553,0.447-1,1-1l0,0c0.553,0,1,0.447,1,1v4
					C150,120.553,149.553,121,149,121L149,121z"/>
				<path fill="#6B21D6" d="M149,131c-0.553,0-1-0.447-1-1v-4c0-0.553,0.447-1,1-1l0,0c0.553,0,1,0.447,1,1v4
					C150,130.553,149.553,131,149,131L149,131z"/>
				<path fill="#6B21D6" d="M149,141c-0.553,0-1-0.447-1-1v-4c0-0.553,0.447-1,1-1l0,0c0.553,0,1,0.447,1,1v4
					C150,140.553,149.553,141,149,141L149,141z"/>
				<path fill="#6B21D6" d="M149,151c-0.553,0-1-0.447-1-1v-4c0-0.553,0.447-1,1-1l0,0c0.553,0,1,0.447,1,1v4
					C150,150.553,149.553,151,149,151L149,151z"/>
				<path fill="#6B21D6" d="M149,161c-0.553,0-1-0.447-1-1v-4c0-0.553,0.447-1,1-1l0,0c0.553,0,1,0.447,1,1v4
					C150,160.553,149.553,161,149,161L149,161z"/>
				<path fill="#6B21D6" d="M149,171c-0.553,0-1-0.447-1-1v-4c0-0.553,0.447-1,1-1l0,0c0.553,0,1,0.447,1,1v4
					C150,170.553,149.553,171,149,171L149,171z"/>
				<path fill="#6B21D6" d="M143,91c-0.553,0-1-0.447-1-1v-4c0-0.553,0.447-1,1-1l0,0c0.553,0,1,0.447,1,1v4
					C144,90.553,143.553,91,143,91L143,91z"/>
				<path fill="#6B21D6" d="M143,101c-0.553,0-1-0.447-1-1v-4c0-0.553,0.447-1,1-1l0,0c0.553,0,1,0.447,1,1v4
					C144,100.553,143.553,101,143,101L143,101z"/>
				<path fill="#6B21D6" d="M143,111c-0.553,0-1-0.447-1-1v-4c0-0.553,0.447-1,1-1l0,0c0.553,0,1,0.447,1,1v4
					C144,110.553,143.553,111,143,111L143,111z"/>
				<path fill="#6B21D6" d="M143,121c-0.553,0-1-0.447-1-1v-4c0-0.553,0.447-1,1-1l0,0c0.553,0,1,0.447,1,1v4
					C144,120.553,143.553,121,143,121L143,121z"/>
				<path fill="#6B21D6" d="M143,131c-0.553,0-1-0.447-1-1v-4c0-0.553,0.447-1,1-1l0,0c0.553,0,1,0.447,1,1v4
					C144,130.553,143.553,131,143,131L143,131z"/>
				<path fill="#6B21D6" d="M143,141c-0.553,0-1-0.447-1-1v-4c0-0.553,0.447-1,1-1l0,0c0.553,0,1,0.447,1,1v4
					C144,140.553,143.553,141,143,141L143,141z"/>
				<path fill="#6B21D6" d="M143,151c-0.553,0-1-0.447-1-1v-4c0-0.553,0.447-1,1-1l0,0c0.553,0,1,0.447,1,1v4
					C144,150.553,143.553,151,143,151L143,151z"/>
				<path fill="#6B21D6" d="M143,161c-0.553,0-1-0.447-1-1v-4c0-0.553,0.447-1,1-1l0,0c0.553,0,1,0.447,1,1v4
					C144,160.553,143.553,161,143,161L143,161z"/>
				<path fill="#6B21D6" d="M143,171c-0.553,0-1-0.447-1-1v-4c0-0.553,0.447-1,1-1l0,0c0.553,0,1,0.447,1,1v4
					C144,170.553,143.553,171,143,171L143,171z"/>
			</g>
		</g>
		<g>
			<path fill="#6B21D6" d="M76,17c0,0.552-0.448,1-1,1l0,0c-0.552,0-1-0.448-1-1V1c0-0.552,0.448-1,1-1l0,0c0.552,0,1,0.448,1,1V17z
				"/>
			<g>
				<path fill="#FFFFFF" d="M69,24c-0.551,0-1-0.449-1-1v-7c0-0.551,0.449-1,1-1h12c0.551,0,1,0.449,1,1v7c0,0.551-0.449,1-1,1H69z"
					/>
				<path fill="#6B21D6" d="M81,16v7H69v-7H81 M81,14H69c-1.104,0-2,0.896-2,2v7c0,1.104,0.896,2,2,2h12c1.104,0,2-0.896,2-2v-7
					C83,14.896,82.104,14,81,14L81,14z"/>
			</g>
			<g>
				<path fill="#FFFFFF" d="M59,178V24c0-1.654,1.346-3,3-3h26c1.654,0,3,1.346,3,3v154H59z"/>
				<path fill="#6B21D6" d="M88,22c1.103,0,2,0.897,2,2v153H60V24c0-1.103,0.897-2,2-2H88 M88,20H62c-2.21,0-4,1.79-4,4v155h34V24
					C92,21.79,90.21,20,88,20L88,20z"/>
			</g>
			<g>
				
					<line fill="none" stroke="#6B21D6" stroke-width="2" stroke-linecap="round" stroke-miterlimit="10" x1="75" y1="30" x2="75" y2="168"/>
				
					<line fill="none" stroke="#6B21D6" stroke-width="2" stroke-linecap="round" stroke-miterlimit="10" x1="68" y1="30" x2="68" y2="168"/>
				
					<line fill="none" stroke="#6B21D6" stroke-width="2" stroke-linecap="round" stroke-miterlimit="10" x1="82" y1="30" x2="82" y2="168"/>
			</g>
		</g>
		<g>
			<path fill="#FFFFFF" d="M139,93v84c0,0.73-0.2,1.41-0.54,2H86.54c-0.34-0.59-0.54-1.27-0.54-2V93c0-2.21,1.79-4,4-4h45
				C137.21,89,139,90.79,139,93z"/>
			<path opacity="0.25" fill="#6B21D6" d="M139,93v84c0,0.73-0.2,1.41-0.54,2H86.54c-0.34-0.59-0.54-1.27-0.54-2V93
				c0-2.21,1.79-4,4-4h45C137.21,89,139,90.79,139,93z"/>
			<g>
				<path fill="#6B21D6" d="M135,91c1.103,0,2,0.897,2,2v84H88V93c0-1.103,0.897-2,2-2H135 M135,89H90c-2.21,0-4,1.79-4,4v84
					c0,0.73,0.2,1.41,0.54,2h51.92c0.34-0.59,0.54-1.27,0.54-2V93C139,90.79,137.21,89,135,89L135,89z"/>
			</g>
			<g>
				<g>
					<path fill="#6B21D6" d="M104,98c0,0.553-0.447,1-1,1h-9c-0.552,0-1-0.447-1-1l0,0c0-0.553,0.448-1,1-1h9
						C103.553,97,104,97.447,104,98L104,98z"/>
					<path fill="#6B21D6" d="M118,98c0,0.553-0.447,1-1,1h-9c-0.553,0-1-0.447-1-1l0,0c0-0.553,0.447-1,1-1h9
						C117.553,97,118,97.447,118,98L118,98z"/>
					<path fill="#6B21D6" d="M132,98c0,0.553-0.447,1-1,1h-9c-0.553,0-1-0.447-1-1l0,0c0-0.553,0.447-1,1-1h9
						C131.553,97,132,97.447,132,98L132,98z"/>
				</g>
				<g>
					<path fill="#6B21D6" d="M104,104c0,0.553-0.447,1-1,1h-9c-0.552,0-1-0.447-1-1l0,0c0-0.553,0.448-1,1-1h9
						C103.553,103,104,103.447,104,104L104,104z"/>
					<path fill="#6B21D6" d="M118,104c0,0.553-0.447,1-1,1h-9c-0.553,0-1-0.447-1-1l0,0c0-0.553,0.447-1,1-1h9
						C117.553,103,118,103.447,118,104L118,104z"/>
					<path fill="#6B21D6" d="M132,104c0,0.553-0.447,1-1,1h-9c-0.553,0-1-0.447-1-1l0,0c0-0.553,0.447-1,1-1h9
						C131.553,103,132,103.447,132,104L132,104z"/>
				</g>
				<g>
					<path fill="#6B21D6" d="M104,110c0,0.553-0.447,1-1,1h-9c-0.552,0-1-0.447-1-1l0,0c0-0.553,0.448-1,1-1h9
						C103.553,109,104,109.447,104,110L104,110z"/>
					<path fill="#6B21D6" d="M118,110c0,0.553-0.447,1-1,1h-9c-0.553,0-1-0.447-1-1l0,0c0-0.553,0.447-1,1-1h9
						C117.553,109,118,109.447,118,110L118,110z"/>
					<path fill="#6B21D6" d="M132,110c0,0.553-0.447,1-1,1h-9c-0.553,0-1-0.447-1-1l0,0c0-0.553,0.447-1,1-1h9
						C131.553,109,132,109.447,132,110L132,110z"/>
				</g>
				<g>
					<path fill="#6B21D6" d="M104,116c0,0.553-0.447,1-1,1h-9c-0.552,0-1-0.447-1-1l0,0c0-0.553,0.448-1,1-1h9
						C103.553,115,104,115.447,104,116L104,116z"/>
					<path fill="#6B21D6" d="M118,116c0,0.553-0.447,1-1,1h-9c-0.553,0-1-0.447-1-1l0,0c0-0.553,0.447-1,1-1h9
						C117.553,115,118,115.447,118,116L118,116z"/>
					<path fill="#6B21D6" d="M132,116c0,0.553-0.447,1-1,1h-9c-0.553,0-1-0.447-1-1l0,0c0-0.553,0.447-1,1-1h9
						C131.553,115,132,115.447,132,116L132,116z"/>
				</g>
				<g>
					<path fill="#6B21D6" d="M104,122c0,0.553-0.447,1-1,1h-9c-0.552,0-1-0.447-1-1l0,0c0-0.553,0.448-1,1-1h9
						C103.553,121,104,121.447,104,122L104,122z"/>
					<path fill="#6B21D6" d="M118,122c0,0.553-0.447,1-1,1h-9c-0.553,0-1-0.447-1-1l0,0c0-0.553,0.447-1,1-1h9
						C117.553,121,118,121.447,118,122L118,122z"/>
					<path fill="#6B21D6" d="M132,122c0,0.553-0.447,1-1,1h-9c-0.553,0-1-0.447-1-1l0,0c0-0.553,0.447-1,1-1h9
						C131.553,121,132,121.447,132,122L132,122z"/>
				</g>
				<g>
					<path fill="#6B21D6" d="M104,128c0,0.553-0.447,1-1,1h-9c-0.552,0-1-0.447-1-1l0,0c0-0.553,0.448-1,1-1h9
						C103.553,127,104,127.447,104,128L104,128z"/>
					<path fill="#6B21D6" d="M118,128c0,0.553-0.447,1-1,1h-9c-0.553,0-1-0.447-1-1l0,0c0-0.553,0.447-1,1-1h9
						C117.553,127,118,127.447,118,128L118,128z"/>
					<path fill="#6B21D6" d="M132,128c0,0.553-0.447,1-1,1h-9c-0.553,0-1-0.447-1-1l0,0c0-0.553,0.447-1,1-1h9
						C131.553,127,132,127.447,132,128L132,128z"/>
				</g>
				<g>
					<path fill="#6B21D6" d="M104,134c0,0.553-0.447,1-1,1h-9c-0.552,0-1-0.447-1-1l0,0c0-0.553,0.448-1,1-1h9
						C103.553,133,104,133.447,104,134L104,134z"/>
					<path fill="#6B21D6" d="M118,134c0,0.553-0.447,1-1,1h-9c-0.553,0-1-0.447-1-1l0,0c0-0.553,0.447-1,1-1h9
						C117.553,133,118,133.447,118,134L118,134z"/>
					<path fill="#6B21D6" d="M132,134c0,0.553-0.447,1-1,1h-9c-0.553,0-1-0.447-1-1l0,0c0-0.553,0.447-1,1-1h9
						C131.553,133,132,133.447,132,134L132,134z"/>
				</g>
				<g>
					<path fill="#6B21D6" d="M104,140c0,0.553-0.447,1-1,1h-9c-0.552,0-1-0.447-1-1l0,0c0-0.553,0.448-1,1-1h9
						C103.553,139,104,139.447,104,140L104,140z"/>
					<path fill="#6B21D6" d="M118,140c0,0.553-0.447,1-1,1h-9c-0.553,0-1-0.447-1-1l0,0c0-0.553,0.447-1,1-1h9
						C117.553,139,118,139.447,118,140L118,140z"/>
					<path fill="#6B21D6" d="M132,140c0,0.553-0.447,1-1,1h-9c-0.553,0-1-0.447-1-1l0,0c0-0.553,0.447-1,1-1h9
						C131.553,139,132,139.447,132,140L132,140z"/>
				</g>
				<g>
					<path fill="#6B21D6" d="M104,146c0,0.553-0.447,1-1,1h-9c-0.552,0-1-0.447-1-1l0,0c0-0.553,0.448-1,1-1h9
						C103.553,145,104,145.447,104,146L104,146z"/>
					<path fill="#6B21D6" d="M118,146c0,0.553-0.447,1-1,1h-9c-0.553,0-1-0.447-1-1l0,0c0-0.553,0.447-1,1-1h9
						C117.553,145,118,145.447,118,146L118,146z"/>
					<path fill="#6B21D6" d="M132,146c0,0.553-0.447,1-1,1h-9c-0.553,0-1-0.447-1-1l0,0c0-0.553,0.447-1,1-1h9
						C131.553,145,132,145.447,132,146L132,146z"/>
				</g>
				<g>
					<path fill="#6B21D6" d="M104,152c0,0.553-0.447,1-1,1h-9c-0.552,0-1-0.447-1-1l0,0c0-0.553,0.448-1,1-1h9
						C103.553,151,104,151.447,104,152L104,152z"/>
					<path fill="#6B21D6" d="M118,152c0,0.553-0.447,1-1,1h-9c-0.553,0-1-0.447-1-1l0,0c0-0.553,0.447-1,1-1h9
						C117.553,151,118,151.447,118,152L118,152z"/>
					<path fill="#6B21D6" d="M132,152c0,0.553-0.447,1-1,1h-9c-0.553,0-1-0.447-1-1l0,0c0-0.553,0.447-1,1-1h9
						C131.553,151,132,151.447,132,152L132,152z"/>
				</g>
				<g>
					<path fill="#6B21D6" d="M104,158c0,0.553-0.447,1-1,1h-9c-0.552,0-1-0.447-1-1l0,0c0-0.553,0.448-1,1-1h9
						C103.553,157,104,157.447,104,158L104,158z"/>
					<path fill="#6B21D6" d="M118,158c0,0.553-0.447,1-1,1h-9c-0.553,0-1-0.447-1-1l0,0c0-0.553,0.447-1,1-1h9
						C117.553,157,118,157.447,118,158L118,158z"/>
					<path fill="#6B21D6" d="M132,158c0,0.553-0.447,1-1,1h-9c-0.553,0-1-0.447-1-1l0,0c0-0.553,0.447-1,1-1h9
						C131.553,157,132,157.447,132,158L132,158z"/>
				</g>
				<g>
					<path fill="#6B21D6" d="M104,164c0,0.553-0.447,1-1,1h-9c-0.552,0-1-0.447-1-1l0,0c0-0.553,0.448-1,1-1h9
						C103.553,163,104,163.447,104,164L104,164z"/>
					<path fill="#6B21D6" d="M118,164c0,0.553-0.447,1-1,1h-9c-0.553,0-1-0.447-1-1l0,0c0-0.553,0.447-1,1-1h9
						C117.553,163,118,163.447,118,164L118,164z"/>
					<path fill="#6B21D6" d="M132,164c0,0.553-0.447,1-1,1h-9c-0.553,0-1-0.447-1-1l0,0c0-0.553,0.447-1,1-1h9
						C131.553,163,132,163.447,132,164L132,164z"/>
				</g>
			</g>
		</g>
		<g>
			<g>
				<path fill="#FFFFFF" d="M224,174c-8.271,0-15-6.729-15-15v-55c0-8.271,6.729-15,15-15s15,6.729,15,15v55
					C239,167.271,232.271,174,224,174z"/>
				<path fill="#6B21D6" d="M224,90c7.72,0,14,6.28,14,14v55c0,7.72-6.28,14-14,14s-14-6.28-14-14v-55C210,96.28,216.28,90,224,90
					 M224,88c-8.837,0-16,7.163-16,16v55c0,8.837,7.163,16,16,16s16-7.163,16-16v-55C240,95.163,232.837,88,224,88L224,88z"/>
			</g>
			<g opacity="0.5">
				<path fill="#6B21D6" d="M208,104c0-8.837,7.163-16,16-16l0,0c8.837,0,16,7.163,16,16H208z"/>
			</g>
			<g>
				<path fill="#6B21D6" d="M224,90c7.041,0,12.884,5.225,13.857,12h-27.715C211.116,95.225,216.959,90,224,90 M224,88
					c-8.837,0-16,7.163-16,16h32C240,95.163,232.837,88,224,88L224,88z"/>
			</g>
			<g>
				<path fill="#FFFFFF" d="M195,178v-27c0-1.654,1.346-3,3-3h52c1.654,0,3,1.346,3,3v27H195z"/>
				<path fill="#6B21D6" d="M250,149c1.103,0,2,0.897,2,2v26h-56v-26c0-1.103,0.897-2,2-2H250 M250,147h-52c-2.21,0-4,1.79-4,4v28
					h60v-28C254,148.79,252.21,147,250,147L250,147z"/>
			</g>
			<g>
				<g>
					<path fill="#FFFFFF" d="M214,93V69c0-5.514,4.486-10,10-10s10,4.486,10,10v24H214z"/>
					<path fill="#6B21D6" d="M224,60c4.963,0,9,4.038,9,9v23h-18V69C215,64.038,219.037,60,224,60 M224,58c-6.075,0-11,4.925-11,11
						v25h22V69C235,62.925,230.075,58,224,58L224,58z"/>
				</g>
				<line fill="#FFFFFF" stroke="#6B21D6" stroke-width="2" stroke-miterlimit="10" x1="214" y1="69" x2="234" y2="69"/>
				<line fill="#FFFFFF" stroke="#6B21D6" stroke-width="2" stroke-miterlimit="10" x1="214" y1="73" x2="234" y2="73"/>
				<line fill="#FFFFFF" stroke="#6B21D6" stroke-width="2" stroke-miterlimit="10" x1="214" y1="77" x2="234" y2="77"/>
				<line fill="#FFFFFF" stroke="#6B21D6" stroke-width="2" stroke-miterlimit="10" x1="214" y1="81" x2="234" y2="81"/>
				<line fill="#FFFFFF" stroke="#6B21D6" stroke-width="2" stroke-miterlimit="10" x1="214" y1="85" x2="234" y2="85"/>
				<line fill="#FFFFFF" stroke="#6B21D6" stroke-width="2" stroke-miterlimit="10" x1="214" y1="89" x2="234" y2="89"/>
				<line fill="#FFFFFF" stroke="#6B21D6" stroke-width="2" stroke-miterlimit="10" x1="219" y1="69" x2="219" y2="93"/>
				<line fill="#FFFFFF" stroke="#6B21D6" stroke-width="2" stroke-miterlimit="10" x1="224" y1="69" x2="224" y2="92"/>
				<line fill="#FFFFFF" stroke="#6B21D6" stroke-width="2" stroke-miterlimit="10" x1="229" y1="69" x2="229" y2="93"/>
			</g>
			<g>
				<path fill="#6B21D6" d="M240,108c0,0.553-0.447,1-1,1h-9c-0.553,0-1-0.447-1-1l0,0c0-0.553,0.447-1,1-1h9
					C239.553,107,240,107.447,240,108L240,108z"/>
				<path fill="#6B21D6" d="M240,113c0,0.553-0.447,1-1,1h-9c-0.553,0-1-0.447-1-1l0,0c0-0.553,0.447-1,1-1h9
					C239.553,112,240,112.447,240,113L240,113z"/>
				<path fill="#6B21D6" d="M240,118c0,0.553-0.447,1-1,1h-9c-0.553,0-1-0.447-1-1l0,0c0-0.553,0.447-1,1-1h9
					C239.553,117,240,117.447,240,118L240,118z"/>
				<path fill="#6B21D6" d="M240,123c0,0.553-0.447,1-1,1h-9c-0.553,0-1-0.447-1-1l0,0c0-0.553,0.447-1,1-1h9
					C239.553,122,240,122.447,240,123L240,123z"/>
				<path fill="#6B21D6" d="M240,128c0,0.553-0.447,1-1,1h-9c-0.553,0-1-0.447-1-1l0,0c0-0.553,0.447-1,1-1h9
					C239.553,127,240,127.447,240,128L240,128z"/>
				<path fill="#6B21D6" d="M240,133c0,0.553-0.447,1-1,1h-9c-0.553,0-1-0.447-1-1l0,0c0-0.553,0.447-1,1-1h9
					C239.553,132,240,132.447,240,133L240,133z"/>
				<path fill="#6B21D6" d="M240,138c0,0.553-0.447,1-1,1h-9c-0.553,0-1-0.447-1-1l0,0c0-0.553,0.447-1,1-1h9
					C239.553,137,240,137.447,240,138L240,138z"/>
				<path fill="#6B21D6" d="M240,143c0,0.553-0.447,1-1,1h-9c-0.553,0-1-0.447-1-1l0,0c0-0.553,0.447-1,1-1h9
					C239.553,142,240,142.447,240,143L240,143z"/>
			</g>
			<g>
				<path fill="#6B21D6" d="M219,108c0,0.553-0.447,1-1,1h-9c-0.553,0-1-0.447-1-1l0,0c0-0.553,0.447-1,1-1h9
					C218.553,107,219,107.447,219,108L219,108z"/>
				<path fill="#6B21D6" d="M219,113c0,0.553-0.447,1-1,1h-9c-0.553,0-1-0.447-1-1l0,0c0-0.553,0.447-1,1-1h9
					C218.553,112,219,112.447,219,113L219,113z"/>
				<path fill="#6B21D6" d="M219,118c0,0.553-0.447,1-1,1h-9c-0.553,0-1-0.447-1-1l0,0c0-0.553,0.447-1,1-1h9
					C218.553,117,219,117.447,219,118L219,118z"/>
				<path fill="#6B21D6" d="M219,123c0,0.553-0.447,1-1,1h-9c-0.553,0-1-0.447-1-1l0,0c0-0.553,0.447-1,1-1h9
					C218.553,122,219,122.447,219,123L219,123z"/>
				<path fill="#6B21D6" d="M219,128c0,0.553-0.447,1-1,1h-9c-0.553,0-1-0.447-1-1l0,0c0-0.553,0.447-1,1-1h9
					C218.553,127,219,127.447,219,128L219,128z"/>
				<path fill="#6B21D6" d="M219,133c0,0.553-0.447,1-1,1h-9c-0.553,0-1-0.447-1-1l0,0c0-0.553,0.447-1,1-1h9
					C218.553,132,219,132.447,219,133L219,133z"/>
				<path fill="#6B21D6" d="M219,138c0,0.553-0.447,1-1,1h-9c-0.553,0-1-0.447-1-1l0,0c0-0.553,0.447-1,1-1h9
					C218.553,137,219,137.447,219,138L219,138z"/>
				<path fill="#6B21D6" d="M219,143c0,0.553-0.447,1-1,1h-9c-0.553,0-1-0.447-1-1l0,0c0-0.553,0.447-1,1-1h9
					C218.553,142,219,142.447,219,143L219,143z"/>
			</g>
			<g>
				<path fill="#6B21D6" d="M207,154c0,0.553-0.447,1-1,1h-4c-0.553,0-1-0.447-1-1l0,0c0-0.553,0.447-1,1-1h4
					C206.553,153,207,153.447,207,154L207,154z"/>
				<path fill="#6B21D6" d="M217,154c0,0.553-0.447,1-1,1h-4c-0.553,0-1-0.447-1-1l0,0c0-0.553,0.447-1,1-1h4
					C216.553,153,217,153.447,217,154L217,154z"/>
				<path fill="#6B21D6" d="M227,154c0,0.553-0.447,1-1,1h-4c-0.553,0-1-0.447-1-1l0,0c0-0.553,0.447-1,1-1h4
					C226.553,153,227,153.447,227,154L227,154z"/>
				<path fill="#6B21D6" d="M237,154c0,0.553-0.447,1-1,1h-4c-0.553,0-1-0.447-1-1l0,0c0-0.553,0.447-1,1-1h4
					C236.553,153,237,153.447,237,154L237,154z"/>
				<path fill="#6B21D6" d="M247,154c0,0.553-0.447,1-1,1h-4c-0.553,0-1-0.447-1-1l0,0c0-0.553,0.447-1,1-1h4
					C246.553,153,247,153.447,247,154L247,154z"/>
				<path fill="#6B21D6" d="M207,160c0,0.553-0.447,1-1,1h-4c-0.553,0-1-0.447-1-1l0,0c0-0.553,0.447-1,1-1h4
					C206.553,159,207,159.447,207,160L207,160z"/>
				<path fill="#6B21D6" d="M217,160c0,0.553-0.447,1-1,1h-4c-0.553,0-1-0.447-1-1l0,0c0-0.553,0.447-1,1-1h4
					C216.553,159,217,159.447,217,160L217,160z"/>
				<path fill="#6B21D6" d="M227,160c0,0.553-0.447,1-1,1h-4c-0.553,0-1-0.447-1-1l0,0c0-0.553,0.447-1,1-1h4
					C226.553,159,227,159.447,227,160L227,160z"/>
				<path fill="#6B21D6" d="M237,160c0,0.553-0.447,1-1,1h-4c-0.553,0-1-0.447-1-1l0,0c0-0.553,0.447-1,1-1h4
					C236.553,159,237,159.447,237,160L237,160z"/>
				<path fill="#6B21D6" d="M247,160c0,0.553-0.447,1-1,1h-4c-0.553,0-1-0.447-1-1l0,0c0-0.553,0.447-1,1-1h4
					C246.553,159,247,159.447,247,160L247,160z"/>
				<path fill="#6B21D6" d="M207,166c0,0.553-0.447,1-1,1h-4c-0.553,0-1-0.447-1-1l0,0c0-0.553,0.447-1,1-1h4
					C206.553,165,207,165.447,207,166L207,166z"/>
				<path fill="#6B21D6" d="M217,166c0,0.553-0.447,1-1,1h-4c-0.553,0-1-0.447-1-1l0,0c0-0.553,0.447-1,1-1h4
					C216.553,165,217,165.447,217,166L217,166z"/>
				<path fill="#6B21D6" d="M227,166c0,0.553-0.447,1-1,1h-4c-0.553,0-1-0.447-1-1l0,0c0-0.553,0.447-1,1-1h4
					C226.553,165,227,165.447,227,166L227,166z"/>
				<path fill="#6B21D6" d="M237,166c0,0.553-0.447,1-1,1h-4c-0.553,0-1-0.447-1-1l0,0c0-0.553,0.447-1,1-1h4
					C236.553,165,237,165.447,237,166L237,166z"/>
				<path fill="#6B21D6" d="M247,166c0,0.553-0.447,1-1,1h-4c-0.553,0-1-0.447-1-1l0,0c0-0.553,0.447-1,1-1h4
					C246.553,165,247,165.447,247,166L247,166z"/>
				<path fill="#6B21D6" d="M207,172c0,0.553-0.447,1-1,1h-4c-0.553,0-1-0.447-1-1l0,0c0-0.553,0.447-1,1-1h4
					C206.553,171,207,171.447,207,172L207,172z"/>
				<path fill="#6B21D6" d="M217,172c0,0.553-0.447,1-1,1h-4c-0.553,0-1-0.447-1-1l0,0c0-0.553,0.447-1,1-1h4
					C216.553,171,217,171.447,217,172L217,172z"/>
				<path fill="#6B21D6" d="M227,172c0,0.553-0.447,1-1,1h-4c-0.553,0-1-0.447-1-1l0,0c0-0.553,0.447-1,1-1h4
					C226.553,171,227,171.447,227,172L227,172z"/>
				<path fill="#6B21D6" d="M237,172c0,0.553-0.447,1-1,1h-4c-0.553,0-1-0.447-1-1l0,0c0-0.553,0.447-1,1-1h4
					C236.553,171,237,171.447,237,172L237,172z"/>
				<path fill="#6B21D6" d="M247,172c0,0.553-0.447,1-1,1h-4c-0.553,0-1-0.447-1-1l0,0c0-0.553,0.447-1,1-1h4
					C246.553,171,247,171.447,247,172L247,172z"/>
			</g>
		</g>
		<path fill="#6B21D6" d="M23,178c0-0.553-0.448-1-1-1H1c-0.552,0-1,0.447-1,1l0,0c0,0.553,0.448,1,1,1h21
			C22.552,179,23,178.553,23,178L23,178z"/>
		<path fill="#6B21D6" d="M280,178c0,0.553-0.447,1-1,1h-9c-0.553,0-1-0.447-1-1l0,0c0-0.553,0.447-1,1-1h9
			C279.553,177,280,177.447,280,178L280,178z"/>
		<path fill="#6B21D6" d="M265,178c0,0.553-0.447,1-1,1H29c-0.553,0-1-0.447-1-1l0,0c0-0.553,0.447-1,1-1h235
			C264.553,177,265,177.447,265,178L265,178z"/>
		<path fill="#6B21D6" d="M288,178c0,0.553-0.447,1-1,1h-2c-0.553,0-1-0.447-1-1l0,0c0-0.553,0.447-1,1-1h2
			C287.553,177,288,177.447,288,178L288,178z"/>
	</g>
</g>
<g id="Layer_3_copy">
	<g>
		<g>
			<g>
				<path fill="#FFFFFF" d="M68,52v127H39V52c0-2.21,1.79-4,4-4h21C66.21,48,68,49.79,68,52z"/>
			</g>
			<g opacity="0.5">
				<g>
					<path fill="#6B21D6" d="M68,52v127H39V52c0-2.21,1.79-4,4-4h21C66.21,48,68,49.79,68,52z"/>
				</g>
			</g>
			<g>
				<path fill="#6B21D6" d="M64,50c1.103,0,2,0.897,2,2v125H41V52c0-1.103,0.897-2,2-2H64 M64,48H43c-2.21,0-4,1.79-4,4v127h29V52
					C68,49.79,66.21,48,64,48L64,48z"/>
			</g>
			<g>
				<g>
					<path fill="#6B21D6" d="M55,57c0,0.552-0.448,1-1,1h-9c-0.552,0-1-0.448-1-1l0,0c0-0.552,0.448-1,1-1h9
						C54.552,56,55,56.448,55,57L55,57z"/>
				</g>
				<g>
					<path fill="#6B21D6" d="M55,62c0,0.552-0.448,1-1,1h-9c-0.552,0-1-0.448-1-1l0,0c0-0.552,0.448-1,1-1h9
						C54.552,61,55,61.448,55,62L55,62z"/>
				</g>
				<g>
					<path fill="#6B21D6" d="M55,67c0,0.552-0.448,1-1,1h-9c-0.552,0-1-0.448-1-1l0,0c0-0.552,0.448-1,1-1h9
						C54.552,66,55,66.448,55,67L55,67z"/>
				</g>
				<g>
					<path fill="#6B21D6" d="M55,72c0,0.553-0.448,1-1,1h-9c-0.552,0-1-0.447-1-1l0,0c0-0.553,0.448-1,1-1h9
						C54.552,71,55,71.447,55,72L55,72z"/>
				</g>
				<g>
					<path fill="#6B21D6" d="M55,77c0,0.553-0.448,1-1,1h-9c-0.552,0-1-0.447-1-1l0,0c0-0.553,0.448-1,1-1h9
						C54.552,76,55,76.447,55,77L55,77z"/>
				</g>
				<g>
					<path fill="#6B21D6" d="M55,82c0,0.553-0.448,1-1,1h-9c-0.552,0-1-0.447-1-1l0,0c0-0.553,0.448-1,1-1h9
						C54.552,81,55,81.447,55,82L55,82z"/>
				</g>
				<g>
					<path fill="#6B21D6" d="M55,87c0,0.553-0.448,1-1,1h-9c-0.552,0-1-0.447-1-1l0,0c0-0.553,0.448-1,1-1h9
						C54.552,86,55,86.447,55,87L55,87z"/>
				</g>
				<g>
					<path fill="#6B21D6" d="M55,92c0,0.553-0.448,1-1,1h-9c-0.552,0-1-0.447-1-1l0,0c0-0.553,0.448-1,1-1h9
						C54.552,91,55,91.447,55,92L55,92z"/>
				</g>
				<g>
					<path fill="#6B21D6" d="M55,97c0,0.553-0.448,1-1,1h-9c-0.552,0-1-0.447-1-1l0,0c0-0.553,0.448-1,1-1h9
						C54.552,96,55,96.447,55,97L55,97z"/>
				</g>
				<g>
					<path fill="#6B21D6" d="M55,102c0,0.553-0.448,1-1,1h-9c-0.552,0-1-0.447-1-1l0,0c0-0.553,0.448-1,1-1h9
						C54.552,101,55,101.447,55,102L55,102z"/>
				</g>
				<g>
					<path fill="#6B21D6" d="M55,107c0,0.553-0.448,1-1,1h-9c-0.552,0-1-0.447-1-1l0,0c0-0.553,0.448-1,1-1h9
						C54.552,106,55,106.447,55,107L55,107z"/>
				</g>
				<g>
					<path fill="#6B21D6" d="M55,112c0,0.553-0.448,1-1,1h-9c-0.552,0-1-0.447-1-1l0,0c0-0.553,0.448-1,1-1h9
						C54.552,111,55,111.447,55,112L55,112z"/>
				</g>
				<g>
					<path fill="#6B21D6" d="M55,117c0,0.553-0.448,1-1,1h-9c-0.552,0-1-0.447-1-1l0,0c0-0.553,0.448-1,1-1h9
						C54.552,116,55,116.447,55,117L55,117z"/>
				</g>
				<g>
					<path fill="#6B21D6" d="M55,122c0,0.553-0.448,1-1,1h-9c-0.552,0-1-0.447-1-1l0,0c0-0.553,0.448-1,1-1h9
						C54.552,121,55,121.447,55,122L55,122z"/>
				</g>
				<g>
					<path fill="#6B21D6" d="M55,127c0,0.553-0.448,1-1,1h-9c-0.552,0-1-0.447-1-1l0,0c0-0.553,0.448-1,1-1h9
						C54.552,126,55,126.447,55,127L55,127z"/>
				</g>
				<g>
					<path fill="#6B21D6" d="M55,132c0,0.553-0.448,1-1,1h-9c-0.552,0-1-0.447-1-1l0,0c0-0.553,0.448-1,1-1h9
						C54.552,131,55,131.447,55,132L55,132z"/>
				</g>
				<g>
					<path fill="#6B21D6" d="M55,137c0,0.553-0.448,1-1,1h-9c-0.552,0-1-0.447-1-1l0,0c0-0.553,0.448-1,1-1h9
						C54.552,136,55,136.447,55,137L55,137z"/>
				</g>
				<g>
					<path fill="#6B21D6" d="M55,142c0,0.553-0.448,1-1,1h-9c-0.552,0-1-0.447-1-1l0,0c0-0.553,0.448-1,1-1h9
						C54.552,141,55,141.447,55,142L55,142z"/>
				</g>
				<g>
					<path fill="#6B21D6" d="M55,147c0,0.553-0.448,1-1,1h-9c-0.552,0-1-0.447-1-1l0,0c0-0.553,0.448-1,1-1h9
						C54.552,146,55,146.447,55,147L55,147z"/>
				</g>
				<g>
					<path fill="#6B21D6" d="M55,152c0,0.553-0.448,1-1,1h-9c-0.552,0-1-0.447-1-1l0,0c0-0.553,0.448-1,1-1h9
						C54.552,151,55,151.447,55,152L55,152z"/>
				</g>
				<g>
					<path fill="#6B21D6" d="M55,157c0,0.553-0.448,1-1,1h-9c-0.552,0-1-0.447-1-1l0,0c0-0.553,0.448-1,1-1h9
						C54.552,156,55,156.447,55,157L55,157z"/>
				</g>
				<g>
					<path fill="#6B21D6" d="M55,162c0,0.553-0.448,1-1,1h-9c-0.552,0-1-0.447-1-1l0,0c0-0.553,0.448-1,1-1h9
						C54.552,161,55,161.447,55,162L55,162z"/>
				</g>
				<g>
					<path fill="#6B21D6" d="M55,167c0,0.553-0.448,1-1,1h-9c-0.552,0-1-0.447-1-1l0,0c0-0.553,0.448-1,1-1h9
						C54.552,166,55,166.447,55,167L55,167z"/>
				</g>
				<g>
					<path fill="#6B21D6" d="M55,172c0,0.553-0.448,1-1,1h-9c-0.552,0-1-0.447-1-1l0,0c0-0.553,0.448-1,1-1h9
						C54.552,171,55,171.447,55,172L55,172z"/>
				</g>
			</g>
		</g>
		<g>
			<g>
				<path fill="#FCFCFC" d="M198,87v92h-25V87c0-2.21,1.79-4,4-4h17C196.21,83,198,84.79,198,87z"/>
			</g>
			<g opacity="0.5">
				<g>
					<path fill="#6B21D6" d="M198,87v92h-25V87c0-2.21,1.79-4,4-4h17C196.21,83,198,84.79,198,87z"/>
				</g>
			</g>
			<g>
				<path fill="#6B21D6" d="M194,85c1.103,0,2,0.897,2,2v90h-21V87c0-1.103,0.897-2,2-2H194 M194,83h-17c-2.21,0-4,1.79-4,4v92h25
					V87C198,84.79,196.21,83,194,83L194,83z"/>
			</g>
			<g>
				<g>
					<path fill="#6B21D6" d="M190,91c0,0.553-0.447,1-1,1h-9c-0.553,0-1-0.447-1-1l0,0c0-0.553,0.447-1,1-1h9
						C189.553,90,190,90.447,190,91L190,91z"/>
				</g>
				<g>
					<path fill="#6B21D6" d="M190,96c0,0.553-0.447,1-1,1h-9c-0.553,0-1-0.447-1-1l0,0c0-0.553,0.447-1,1-1h9
						C189.553,95,190,95.447,190,96L190,96z"/>
				</g>
				<g>
					<path fill="#6B21D6" d="M190,101c0,0.553-0.447,1-1,1h-9c-0.553,0-1-0.447-1-1l0,0c0-0.553,0.447-1,1-1h9
						C189.553,100,190,100.447,190,101L190,101z"/>
				</g>
				<g>
					<path fill="#6B21D6" d="M190,106c0,0.553-0.447,1-1,1h-9c-0.553,0-1-0.447-1-1l0,0c0-0.553,0.447-1,1-1h9
						C189.553,105,190,105.447,190,106L190,106z"/>
				</g>
				<g>
					<path fill="#6B21D6" d="M190,111c0,0.553-0.447,1-1,1h-9c-0.553,0-1-0.447-1-1l0,0c0-0.553,0.447-1,1-1h9
						C189.553,110,190,110.447,190,111L190,111z"/>
				</g>
				<g>
					<path fill="#6B21D6" d="M190,116c0,0.553-0.447,1-1,1h-9c-0.553,0-1-0.447-1-1l0,0c0-0.553,0.447-1,1-1h9
						C189.553,115,190,115.447,190,116L190,116z"/>
				</g>
				<g>
					<path fill="#6B21D6" d="M190,121c0,0.553-0.447,1-1,1h-9c-0.553,0-1-0.447-1-1l0,0c0-0.553,0.447-1,1-1h9
						C189.553,120,190,120.447,190,121L190,121z"/>
				</g>
				<g>
					<path fill="#6B21D6" d="M190,126c0,0.553-0.447,1-1,1h-9c-0.553,0-1-0.447-1-1l0,0c0-0.553,0.447-1,1-1h9
						C189.553,125,190,125.447,190,126L190,126z"/>
				</g>
				<g>
					<path fill="#6B21D6" d="M190,131c0,0.553-0.447,1-1,1h-9c-0.553,0-1-0.447-1-1l0,0c0-0.553,0.447-1,1-1h9
						C189.553,130,190,130.447,190,131L190,131z"/>
				</g>
				<g>
					<path fill="#6B21D6" d="M190,136c0,0.553-0.447,1-1,1h-9c-0.553,0-1-0.447-1-1l0,0c0-0.553,0.447-1,1-1h9
						C189.553,135,190,135.447,190,136L190,136z"/>
				</g>
				<g>
					<path fill="#6B21D6" d="M190,141c0,0.553-0.447,1-1,1h-9c-0.553,0-1-0.447-1-1l0,0c0-0.553,0.447-1,1-1h9
						C189.553,140,190,140.447,190,141L190,141z"/>
				</g>
				<g>
					<path fill="#6B21D6" d="M190,146c0,0.553-0.447,1-1,1h-9c-0.553,0-1-0.447-1-1l0,0c0-0.553,0.447-1,1-1h9
						C189.553,145,190,145.447,190,146L190,146z"/>
				</g>
				<g>
					<path fill="#6B21D6" d="M190,151c0,0.553-0.447,1-1,1h-9c-0.553,0-1-0.447-1-1l0,0c0-0.553,0.447-1,1-1h9
						C189.553,150,190,150.447,190,151L190,151z"/>
				</g>
				<g>
					<path fill="#6B21D6" d="M190,156c0,0.553-0.447,1-1,1h-9c-0.553,0-1-0.447-1-1l0,0c0-0.553,0.447-1,1-1h9
						C189.553,155,190,155.447,190,156L190,156z"/>
				</g>
				<g>
					<path fill="#6B21D6" d="M190,161c0,0.553-0.447,1-1,1h-9c-0.553,0-1-0.447-1-1l0,0c0-0.553,0.447-1,1-1h9
						C189.553,160,190,160.447,190,161L190,161z"/>
				</g>
				<g>
					<path fill="#6B21D6" d="M190,166c0,0.553-0.447,1-1,1h-9c-0.553,0-1-0.447-1-1l0,0c0-0.553,0.447-1,1-1h9
						C189.553,165,190,165.447,190,166L190,166z"/>
				</g>
				<g>
					<path fill="#6B21D6" d="M190,171c0,0.553-0.447,1-1,1h-9c-0.553,0-1-0.447-1-1l0,0c0-0.553,0.447-1,1-1h9
						C189.553,170,190,170.447,190,171L190,171z"/>
				</g>
			</g>
		</g>
		<g>
			<g>
				<path fill="#FFFFFF" d="M176,81c0,2.209-1.791,4-4,4h-28c-2.209,0-4-1.791-4-4v-9c0-2.209,1.791-4,4-4h28c2.209,0,4,1.791,4,4
					V81z"/>
			</g>
			<g opacity="0.25">
				<g>
					<path fill="#6B21D6" d="M176,81c0,2.209-1.791,4-4,4h-28c-2.209,0-4-1.791-4-4v-9c0-2.209,1.791-4,4-4h28c2.209,0,4,1.791,4,4
						V81z"/>
				</g>
			</g>
			<g>
				<path fill="#6B21D6" d="M172,70c1.103,0,2,0.897,2,2v9c0,1.103-0.897,2-2,2h-28c-1.103,0-2-0.897-2-2v-9c0-1.103,0.897-2,2-2
					H172 M172,68h-28c-2.209,0-4,1.791-4,4v9c0,2.209,1.791,4,4,4h28c2.209,0,4-1.791,4-4v-9C176,69.791,174.209,68,172,68L172,68z"
					/>
			</g>
			<g>
				<path fill="#FFFFFF" d="M184,81v96c0,0.73-0.2,1.41-0.54,2h-50.92c-0.34-0.59-0.54-1.27-0.54-2V81c0-2.21,1.79-4,4-4h44
					C182.21,77,184,78.79,184,81z"/>
			</g>
			<g opacity="0.1">
				<g>
					<path fill="#6B21D6" d="M184,81v96c0,0.73-0.2,1.41-0.54,2h-50.92c-0.34-0.59-0.54-1.27-0.54-2V81c0-2.21,1.79-4,4-4h44
						C182.21,77,184,78.79,184,81z"/>
				</g>
			</g>
			<g>
				<path fill="#6B21D6" d="M180,79c1.103,0,2,0.897,2,2v96h-48V81c0-1.103,0.897-2,2-2H180 M180,77h-44c-2.21,0-4,1.79-4,4v96
					c0,0.73,0.2,1.41,0.54,2h50.92c0.34-0.59,0.54-1.27,0.54-2V81C184,78.79,182.21,77,180,77L180,77z"/>
			</g>
			<g>
				<g>
					<path fill="#6B21D6" d="M173,91c-0.553,0-1-0.447-1-1v-4c0-0.553,0.447-1,1-1l0,0c0.553,0,1,0.447,1,1v4
						C174,90.553,173.553,91,173,91L173,91z"/>
				</g>
				<g>
					<path fill="#6B21D6" d="M173,101c-0.553,0-1-0.447-1-1v-4c0-0.553,0.447-1,1-1l0,0c0.553,0,1,0.447,1,1v4
						C174,100.553,173.553,101,173,101L173,101z"/>
				</g>
				<g>
					<path fill="#6B21D6" d="M173,111c-0.553,0-1-0.447-1-1v-4c0-0.553,0.447-1,1-1l0,0c0.553,0,1,0.447,1,1v4
						C174,110.553,173.553,111,173,111L173,111z"/>
				</g>
				<g>
					<path fill="#6B21D6" d="M173,121c-0.553,0-1-0.447-1-1v-4c0-0.553,0.447-1,1-1l0,0c0.553,0,1,0.447,1,1v4
						C174,120.553,173.553,121,173,121L173,121z"/>
				</g>
				<g>
					<path fill="#6B21D6" d="M173,131c-0.553,0-1-0.447-1-1v-4c0-0.553,0.447-1,1-1l0,0c0.553,0,1,0.447,1,1v4
						C174,130.553,173.553,131,173,131L173,131z"/>
				</g>
				<g>
					<path fill="#6B21D6" d="M173,141c-0.553,0-1-0.447-1-1v-4c0-0.553,0.447-1,1-1l0,0c0.553,0,1,0.447,1,1v4
						C174,140.553,173.553,141,173,141L173,141z"/>
				</g>
				<g>
					<path fill="#6B21D6" d="M173,151c-0.553,0-1-0.447-1-1v-4c0-0.553,0.447-1,1-1l0,0c0.553,0,1,0.447,1,1v4
						C174,150.553,173.553,151,173,151L173,151z"/>
				</g>
				<g>
					<path fill="#6B21D6" d="M173,161c-0.553,0-1-0.447-1-1v-4c0-0.553,0.447-1,1-1l0,0c0.553,0,1,0.447,1,1v4
						C174,160.553,173.553,161,173,161L173,161z"/>
				</g>
				<g>
					<path fill="#6B21D6" d="M173,171c-0.553,0-1-0.447-1-1v-4c0-0.553,0.447-1,1-1l0,0c0.553,0,1,0.447,1,1v4
						C174,170.553,173.553,171,173,171L173,171z"/>
				</g>
				<g>
					<path fill="#6B21D6" d="M167,91c-0.553,0-1-0.447-1-1v-4c0-0.553,0.447-1,1-1l0,0c0.553,0,1,0.447,1,1v4
						C168,90.553,167.553,91,167,91L167,91z"/>
				</g>
				<g>
					<path fill="#6B21D6" d="M167,101c-0.553,0-1-0.447-1-1v-4c0-0.553,0.447-1,1-1l0,0c0.553,0,1,0.447,1,1v4
						C168,100.553,167.553,101,167,101L167,101z"/>
				</g>
				<g>
					<path fill="#6B21D6" d="M167,111c-0.553,0-1-0.447-1-1v-4c0-0.553,0.447-1,1-1l0,0c0.553,0,1,0.447,1,1v4
						C168,110.553,167.553,111,167,111L167,111z"/>
				</g>
				<g>
					<path fill="#6B21D6" d="M167,121c-0.553,0-1-0.447-1-1v-4c0-0.553,0.447-1,1-1l0,0c0.553,0,1,0.447,1,1v4
						C168,120.553,167.553,121,167,121L167,121z"/>
				</g>
				<g>
					<path fill="#6B21D6" d="M167,131c-0.553,0-1-0.447-1-1v-4c0-0.553,0.447-1,1-1l0,0c0.553,0,1,0.447,1,1v4
						C168,130.553,167.553,131,167,131L167,131z"/>
				</g>
				<g>
					<path fill="#6B21D6" d="M167,141c-0.553,0-1-0.447-1-1v-4c0-0.553,0.447-1,1-1l0,0c0.553,0,1,0.447,1,1v4
						C168,140.553,167.553,141,167,141L167,141z"/>
				</g>
				<g>
					<path fill="#6B21D6" d="M167,151c-0.553,0-1-0.447-1-1v-4c0-0.553,0.447-1,1-1l0,0c0.553,0,1,0.447,1,1v4
						C168,150.553,167.553,151,167,151L167,151z"/>
				</g>
				<g>
					<path fill="#6B21D6" d="M167,161c-0.553,0-1-0.447-1-1v-4c0-0.553,0.447-1,1-1l0,0c0.553,0,1,0.447,1,1v4
						C168,160.553,167.553,161,167,161L167,161z"/>
				</g>
				<g>
					<path fill="#6B21D6" d="M167,171c-0.553,0-1-0.447-1-1v-4c0-0.553,0.447-1,1-1l0,0c0.553,0,1,0.447,1,1v4
						C168,170.553,167.553,171,167,171L167,171z"/>
				</g>
				<g>
					<path fill="#6B21D6" d="M161,91c-0.553,0-1-0.447-1-1v-4c0-0.553,0.447-1,1-1l0,0c0.553,0,1,0.447,1,1v4
						C162,90.553,161.553,91,161,91L161,91z"/>
				</g>
				<g>
					<path fill="#6B21D6" d="M161,101c-0.553,0-1-0.447-1-1v-4c0-0.553,0.447-1,1-1l0,0c0.553,0,1,0.447,1,1v4
						C162,100.553,161.553,101,161,101L161,101z"/>
				</g>
				<g>
					<path fill="#6B21D6" d="M161,111c-0.553,0-1-0.447-1-1v-4c0-0.553,0.447-1,1-1l0,0c0.553,0,1,0.447,1,1v4
						C162,110.553,161.553,111,161,111L161,111z"/>
				</g>
				<g>
					<path fill="#6B21D6" d="M161,121c-0.553,0-1-0.447-1-1v-4c0-0.553,0.447-1,1-1l0,0c0.553,0,1,0.447,1,1v4
						C162,120.553,161.553,121,161,121L161,121z"/>
				</g>
				<g>
					<path fill="#6B21D6" d="M161,131c-0.553,0-1-0.447-1-1v-4c0-0.553,0.447-1,1-1l0,0c0.553,0,1,0.447,1,1v4
						C162,130.553,161.553,131,161,131L161,131z"/>
				</g>
				<g>
					<path fill="#6B21D6" d="M161,141c-0.553,0-1-0.447-1-1v-4c0-0.553,0.447-1,1-1l0,0c0.553,0,1,0.447,1,1v4
						C162,140.553,161.553,141,161,141L161,141z"/>
				</g>
				<g>
					<path fill="#6B21D6" d="M161,151c-0.553,0-1-0.447-1-1v-4c0-0.553,0.447-1,1-1l0,0c0.553,0,1,0.447,1,1v4
						C162,150.553,161.553,151,161,151L161,151z"/>
				</g>
				<g>
					<path fill="#6B21D6" d="M161,161c-0.553,0-1-0.447-1-1v-4c0-0.553,0.447-1,1-1l0,0c0.553,0,1,0.447,1,1v4
						C162,160.553,161.553,161,161,161L161,161z"/>
				</g>
				<g>
					<path fill="#6B21D6" d="M161,171c-0.553,0-1-0.447-1-1v-4c0-0.553,0.447-1,1-1l0,0c0.553,0,1,0.447,1,1v4
						C162,170.553,161.553,171,161,171L161,171z"/>
				</g>
				<g>
					<path fill="#6B21D6" d="M155,91c-0.553,0-1-0.447-1-1v-4c0-0.553,0.447-1,1-1l0,0c0.553,0,1,0.447,1,1v4
						C156,90.553,155.553,91,155,91L155,91z"/>
				</g>
				<g>
					<path fill="#6B21D6" d="M155,101c-0.553,0-1-0.447-1-1v-4c0-0.553,0.447-1,1-1l0,0c0.553,0,1,0.447,1,1v4
						C156,100.553,155.553,101,155,101L155,101z"/>
				</g>
				<g>
					<path fill="#6B21D6" d="M155,111c-0.553,0-1-0.447-1-1v-4c0-0.553,0.447-1,1-1l0,0c0.553,0,1,0.447,1,1v4
						C156,110.553,155.553,111,155,111L155,111z"/>
				</g>
				<g>
					<path fill="#6B21D6" d="M155,121c-0.553,0-1-0.447-1-1v-4c0-0.553,0.447-1,1-1l0,0c0.553,0,1,0.447,1,1v4
						C156,120.553,155.553,121,155,121L155,121z"/>
				</g>
				<g>
					<path fill="#6B21D6" d="M155,131c-0.553,0-1-0.447-1-1v-4c0-0.553,0.447-1,1-1l0,0c0.553,0,1,0.447,1,1v4
						C156,130.553,155.553,131,155,131L155,131z"/>
				</g>
				<g>
					<path fill="#6B21D6" d="M155,141c-0.553,0-1-0.447-1-1v-4c0-0.553,0.447-1,1-1l0,0c0.553,0,1,0.447,1,1v4
						C156,140.553,155.553,141,155,141L155,141z"/>
				</g>
				<g>
					<path fill="#6B21D6" d="M155,151c-0.553,0-1-0.447-1-1v-4c0-0.553,0.447-1,1-1l0,0c0.553,0,1,0.447,1,1v4
						C156,150.553,155.553,151,155,151L155,151z"/>
				</g>
				<g>
					<path fill="#6B21D6" d="M155,161c-0.553,0-1-0.447-1-1v-4c0-0.553,0.447-1,1-1l0,0c0.553,0,1,0.447,1,1v4
						C156,160.553,155.553,161,155,161L155,161z"/>
				</g>
				<g>
					<path fill="#6B21D6" d="M155,171c-0.553,0-1-0.447-1-1v-4c0-0.553,0.447-1,1-1l0,0c0.553,0,1,0.447,1,1v4
						C156,170.553,155.553,171,155,171L155,171z"/>
				</g>
				<g>
					<path fill="#6B21D6" d="M149,91c-0.553,0-1-0.447-1-1v-4c0-0.553,0.447-1,1-1l0,0c0.553,0,1,0.447,1,1v4
						C150,90.553,149.553,91,149,91L149,91z"/>
				</g>
				<g>
					<path fill="#6B21D6" d="M149,101c-0.553,0-1-0.447-1-1v-4c0-0.553,0.447-1,1-1l0,0c0.553,0,1,0.447,1,1v4
						C150,100.553,149.553,101,149,101L149,101z"/>
				</g>
				<g>
					<path fill="#6B21D6" d="M149,111c-0.553,0-1-0.447-1-1v-4c0-0.553,0.447-1,1-1l0,0c0.553,0,1,0.447,1,1v4
						C150,110.553,149.553,111,149,111L149,111z"/>
				</g>
				<g>
					<path fill="#6B21D6" d="M149,121c-0.553,0-1-0.447-1-1v-4c0-0.553,0.447-1,1-1l0,0c0.553,0,1,0.447,1,1v4
						C150,120.553,149.553,121,149,121L149,121z"/>
				</g>
				<g>
					<path fill="#6B21D6" d="M149,131c-0.553,0-1-0.447-1-1v-4c0-0.553,0.447-1,1-1l0,0c0.553,0,1,0.447,1,1v4
						C150,130.553,149.553,131,149,131L149,131z"/>
				</g>
				<g>
					<path fill="#6B21D6" d="M149,141c-0.553,0-1-0.447-1-1v-4c0-0.553,0.447-1,1-1l0,0c0.553,0,1,0.447,1,1v4
						C150,140.553,149.553,141,149,141L149,141z"/>
				</g>
				<g>
					<path fill="#6B21D6" d="M149,151c-0.553,0-1-0.447-1-1v-4c0-0.553,0.447-1,1-1l0,0c0.553,0,1,0.447,1,1v4
						C150,150.553,149.553,151,149,151L149,151z"/>
				</g>
				<g>
					<path fill="#6B21D6" d="M149,161c-0.553,0-1-0.447-1-1v-4c0-0.553,0.447-1,1-1l0,0c0.553,0,1,0.447,1,1v4
						C150,160.553,149.553,161,149,161L149,161z"/>
				</g>
				<g>
					<path fill="#6B21D6" d="M149,171c-0.553,0-1-0.447-1-1v-4c0-0.553,0.447-1,1-1l0,0c0.553,0,1,0.447,1,1v4
						C150,170.553,149.553,171,149,171L149,171z"/>
				</g>
				<g>
					<path fill="#6B21D6" d="M143,91c-0.553,0-1-0.447-1-1v-4c0-0.553,0.447-1,1-1l0,0c0.553,0,1,0.447,1,1v4
						C144,90.553,143.553,91,143,91L143,91z"/>
				</g>
				<g>
					<path fill="#6B21D6" d="M143,101c-0.553,0-1-0.447-1-1v-4c0-0.553,0.447-1,1-1l0,0c0.553,0,1,0.447,1,1v4
						C144,100.553,143.553,101,143,101L143,101z"/>
				</g>
				<g>
					<path fill="#6B21D6" d="M143,111c-0.553,0-1-0.447-1-1v-4c0-0.553,0.447-1,1-1l0,0c0.553,0,1,0.447,1,1v4
						C144,110.553,143.553,111,143,111L143,111z"/>
				</g>
				<g>
					<path fill="#6B21D6" d="M143,121c-0.553,0-1-0.447-1-1v-4c0-0.553,0.447-1,1-1l0,0c0.553,0,1,0.447,1,1v4
						C144,120.553,143.553,121,143,121L143,121z"/>
				</g>
				<g>
					<path fill="#6B21D6" d="M143,131c-0.553,0-1-0.447-1-1v-4c0-0.553,0.447-1,1-1l0,0c0.553,0,1,0.447,1,1v4
						C144,130.553,143.553,131,143,131L143,131z"/>
				</g>
				<g>
					<path fill="#6B21D6" d="M143,141c-0.553,0-1-0.447-1-1v-4c0-0.553,0.447-1,1-1l0,0c0.553,0,1,0.447,1,1v4
						C144,140.553,143.553,141,143,141L143,141z"/>
				</g>
				<g>
					<path fill="#6B21D6" d="M143,151c-0.553,0-1-0.447-1-1v-4c0-0.553,0.447-1,1-1l0,0c0.553,0,1,0.447,1,1v4
						C144,150.553,143.553,151,143,151L143,151z"/>
				</g>
				<g>
					<path fill="#6B21D6" d="M143,161c-0.553,0-1-0.447-1-1v-4c0-0.553,0.447-1,1-1l0,0c0.553,0,1,0.447,1,1v4
						C144,160.553,143.553,161,143,161L143,161z"/>
				</g>
				<g>
					<path fill="#6B21D6" d="M143,171c-0.553,0-1-0.447-1-1v-4c0-0.553,0.447-1,1-1l0,0c0.553,0,1,0.447,1,1v4
						C144,170.553,143.553,171,143,171L143,171z"/>
				</g>
			</g>
		</g>
		<g>
			<g>
				<path fill="#6B21D6" d="M76,17c0,0.552-0.448,1-1,1l0,0c-0.552,0-1-0.448-1-1V1c0-0.552,0.448-1,1-1l0,0c0.552,0,1,0.448,1,1V17
					z"/>
			</g>
			<g>
				<g>
					<path fill="#FFFFFF" d="M69,24c-0.551,0-1-0.449-1-1v-7c0-0.551,0.449-1,1-1h12c0.551,0,1,0.449,1,1v7c0,0.551-0.449,1-1,1H69z
						"/>
				</g>
				<g>
					<path fill="#6B21D6" d="M81,16v7H69v-7H81 M81,14H69c-1.104,0-2,0.896-2,2v7c0,1.104,0.896,2,2,2h12c1.104,0,2-0.896,2-2v-7
						C83,14.896,82.104,14,81,14L81,14z"/>
				</g>
			</g>
			<g>
				<g>
					<path fill="#FFFFFF" d="M59,178V24c0-1.654,1.346-3,3-3h26c1.654,0,3,1.346,3,3v154H59z"/>
				</g>
				<g>
					<path fill="#6B21D6" d="M88,22c1.103,0,2,0.897,2,2v153H60V24c0-1.103,0.897-2,2-2H88 M88,20H62c-2.21,0-4,1.79-4,4v155h34V24
						C92,21.79,90.21,20,88,20L88,20z"/>
				</g>
			</g>
			<g>
				<g>
					<path fill="#6B21D6" d="M75,169c-0.552,0-1-0.448-1-1V30c0-0.552,0.448-1,1-1s1,0.448,1,1v138C76,168.552,75.552,169,75,169z"
						/>
				</g>
				<g>
					<path fill="#6B21D6" d="M68,169c-0.552,0-1-0.448-1-1V30c0-0.552,0.448-1,1-1s1,0.448,1,1v138C69,168.552,68.552,169,68,169z"
						/>
				</g>
				<g>
					<path fill="#6B21D6" d="M82,169c-0.552,0-1-0.448-1-1V30c0-0.552,0.448-1,1-1s1,0.448,1,1v138C83,168.552,82.552,169,82,169z"
						/>
				</g>
			</g>
		</g>
		<g>
			<g>
				<path fill="#FFFFFF" d="M139,93v84c0,0.73-0.2,1.41-0.54,2H86.54c-0.34-0.59-0.54-1.27-0.54-2V93c0-2.21,1.79-4,4-4h45
					C137.21,89,139,90.79,139,93z"/>
			</g>
			<g opacity="0.25">
				<path fill="#6B21D6" d="M139,93v84c0,0.73-0.2,1.41-0.54,2H86.54c-0.34-0.59-0.54-1.27-0.54-2V93c0-2.21,1.79-4,4-4h45
					C137.21,89,139,90.79,139,93z"/>
			</g>
			<g>
				<path fill="#6B21D6" d="M135,91c1.103,0,2,0.897,2,2v84H88V93c0-1.103,0.897-2,2-2H135 M135,89H90c-2.21,0-4,1.79-4,4v84
					c0,0.73,0.2,1.41,0.54,2h51.92c0.34-0.59,0.54-1.27,0.54-2V93C139,90.79,137.21,89,135,89L135,89z"/>
			</g>
			<g>
				<g>
					<g>
						<path fill="#6B21D6" d="M104,98c0,0.553-0.447,1-1,1h-9c-0.552,0-1-0.447-1-1l0,0c0-0.553,0.448-1,1-1h9
							C103.553,97,104,97.447,104,98L104,98z"/>
					</g>
					<g>
						<path fill="#6B21D6" d="M118,98c0,0.553-0.447,1-1,1h-9c-0.553,0-1-0.447-1-1l0,0c0-0.553,0.447-1,1-1h9
							C117.553,97,118,97.447,118,98L118,98z"/>
					</g>
					<g>
						<path fill="#6B21D6" d="M132,98c0,0.553-0.447,1-1,1h-9c-0.553,0-1-0.447-1-1l0,0c0-0.553,0.447-1,1-1h9
							C131.553,97,132,97.447,132,98L132,98z"/>
					</g>
				</g>
				<g>
					<g>
						<path fill="#6B21D6" d="M104,104c0,0.553-0.447,1-1,1h-9c-0.552,0-1-0.447-1-1l0,0c0-0.553,0.448-1,1-1h9
							C103.553,103,104,103.447,104,104L104,104z"/>
					</g>
					<g>
						<path fill="#6B21D6" d="M118,104c0,0.553-0.447,1-1,1h-9c-0.553,0-1-0.447-1-1l0,0c0-0.553,0.447-1,1-1h9
							C117.553,103,118,103.447,118,104L118,104z"/>
					</g>
					<g>
						<path fill="#6B21D6" d="M132,104c0,0.553-0.447,1-1,1h-9c-0.553,0-1-0.447-1-1l0,0c0-0.553,0.447-1,1-1h9
							C131.553,103,132,103.447,132,104L132,104z"/>
					</g>
				</g>
				<g>
					<g>
						<path fill="#6B21D6" d="M104,110c0,0.553-0.447,1-1,1h-9c-0.552,0-1-0.447-1-1l0,0c0-0.553,0.448-1,1-1h9
							C103.553,109,104,109.447,104,110L104,110z"/>
					</g>
					<g>
						<path fill="#6B21D6" d="M118,110c0,0.553-0.447,1-1,1h-9c-0.553,0-1-0.447-1-1l0,0c0-0.553,0.447-1,1-1h9
							C117.553,109,118,109.447,118,110L118,110z"/>
					</g>
					<g>
						<path fill="#6B21D6" d="M132,110c0,0.553-0.447,1-1,1h-9c-0.553,0-1-0.447-1-1l0,0c0-0.553,0.447-1,1-1h9
							C131.553,109,132,109.447,132,110L132,110z"/>
					</g>
				</g>
				<g>
					<g>
						<path fill="#6B21D6" d="M104,116c0,0.553-0.447,1-1,1h-9c-0.552,0-1-0.447-1-1l0,0c0-0.553,0.448-1,1-1h9
							C103.553,115,104,115.447,104,116L104,116z"/>
					</g>
					<g>
						<path fill="#6B21D6" d="M118,116c0,0.553-0.447,1-1,1h-9c-0.553,0-1-0.447-1-1l0,0c0-0.553,0.447-1,1-1h9
							C117.553,115,118,115.447,118,116L118,116z"/>
					</g>
					<g>
						<path fill="#6B21D6" d="M132,116c0,0.553-0.447,1-1,1h-9c-0.553,0-1-0.447-1-1l0,0c0-0.553,0.447-1,1-1h9
							C131.553,115,132,115.447,132,116L132,116z"/>
					</g>
				</g>
				<g>
					<g>
						<path fill="#6B21D6" d="M104,122c0,0.553-0.447,1-1,1h-9c-0.552,0-1-0.447-1-1l0,0c0-0.553,0.448-1,1-1h9
							C103.553,121,104,121.447,104,122L104,122z"/>
					</g>
					<g>
						<path fill="#6B21D6" d="M118,122c0,0.553-0.447,1-1,1h-9c-0.553,0-1-0.447-1-1l0,0c0-0.553,0.447-1,1-1h9
							C117.553,121,118,121.447,118,122L118,122z"/>
					</g>
					<g>
						<path fill="#6B21D6" d="M132,122c0,0.553-0.447,1-1,1h-9c-0.553,0-1-0.447-1-1l0,0c0-0.553,0.447-1,1-1h9
							C131.553,121,132,121.447,132,122L132,122z"/>
					</g>
				</g>
				<g>
					<g>
						<path fill="#6B21D6" d="M104,128c0,0.553-0.447,1-1,1h-9c-0.552,0-1-0.447-1-1l0,0c0-0.553,0.448-1,1-1h9
							C103.553,127,104,127.447,104,128L104,128z"/>
					</g>
					<g>
						<path fill="#6B21D6" d="M118,128c0,0.553-0.447,1-1,1h-9c-0.553,0-1-0.447-1-1l0,0c0-0.553,0.447-1,1-1h9
							C117.553,127,118,127.447,118,128L118,128z"/>
					</g>
					<g>
						<path fill="#6B21D6" d="M132,128c0,0.553-0.447,1-1,1h-9c-0.553,0-1-0.447-1-1l0,0c0-0.553,0.447-1,1-1h9
							C131.553,127,132,127.447,132,128L132,128z"/>
					</g>
				</g>
				<g>
					<g>
						<path fill="#6B21D6" d="M104,134c0,0.553-0.447,1-1,1h-9c-0.552,0-1-0.447-1-1l0,0c0-0.553,0.448-1,1-1h9
							C103.553,133,104,133.447,104,134L104,134z"/>
					</g>
					<g>
						<path fill="#6B21D6" d="M118,134c0,0.553-0.447,1-1,1h-9c-0.553,0-1-0.447-1-1l0,0c0-0.553,0.447-1,1-1h9
							C117.553,133,118,133.447,118,134L118,134z"/>
					</g>
					<g>
						<path fill="#6B21D6" d="M132,134c0,0.553-0.447,1-1,1h-9c-0.553,0-1-0.447-1-1l0,0c0-0.553,0.447-1,1-1h9
							C131.553,133,132,133.447,132,134L132,134z"/>
					</g>
				</g>
				<g>
					<g>
						<path fill="#6B21D6" d="M104,140c0,0.553-0.447,1-1,1h-9c-0.552,0-1-0.447-1-1l0,0c0-0.553,0.448-1,1-1h9
							C103.553,139,104,139.447,104,140L104,140z"/>
					</g>
					<g>
						<path fill="#6B21D6" d="M118,140c0,0.553-0.447,1-1,1h-9c-0.553,0-1-0.447-1-1l0,0c0-0.553,0.447-1,1-1h9
							C117.553,139,118,139.447,118,140L118,140z"/>
					</g>
					<g>
						<path fill="#6B21D6" d="M132,140c0,0.553-0.447,1-1,1h-9c-0.553,0-1-0.447-1-1l0,0c0-0.553,0.447-1,1-1h9
							C131.553,139,132,139.447,132,140L132,140z"/>
					</g>
				</g>
				<g>
					<g>
						<path fill="#6B21D6" d="M104,146c0,0.553-0.447,1-1,1h-9c-0.552,0-1-0.447-1-1l0,0c0-0.553,0.448-1,1-1h9
							C103.553,145,104,145.447,104,146L104,146z"/>
					</g>
					<g>
						<path fill="#6B21D6" d="M118,146c0,0.553-0.447,1-1,1h-9c-0.553,0-1-0.447-1-1l0,0c0-0.553,0.447-1,1-1h9
							C117.553,145,118,145.447,118,146L118,146z"/>
					</g>
					<g>
						<path fill="#6B21D6" d="M132,146c0,0.553-0.447,1-1,1h-9c-0.553,0-1-0.447-1-1l0,0c0-0.553,0.447-1,1-1h9
							C131.553,145,132,145.447,132,146L132,146z"/>
					</g>
				</g>
				<g>
					<g>
						<path fill="#6B21D6" d="M104,152c0,0.553-0.447,1-1,1h-9c-0.552,0-1-0.447-1-1l0,0c0-0.553,0.448-1,1-1h9
							C103.553,151,104,151.447,104,152L104,152z"/>
					</g>
					<g>
						<path fill="#6B21D6" d="M118,152c0,0.553-0.447,1-1,1h-9c-0.553,0-1-0.447-1-1l0,0c0-0.553,0.447-1,1-1h9
							C117.553,151,118,151.447,118,152L118,152z"/>
					</g>
					<g>
						<path fill="#6B21D6" d="M132,152c0,0.553-0.447,1-1,1h-9c-0.553,0-1-0.447-1-1l0,0c0-0.553,0.447-1,1-1h9
							C131.553,151,132,151.447,132,152L132,152z"/>
					</g>
				</g>
				<g>
					<g>
						<path fill="#6B21D6" d="M104,158c0,0.553-0.447,1-1,1h-9c-0.552,0-1-0.447-1-1l0,0c0-0.553,0.448-1,1-1h9
							C103.553,157,104,157.447,104,158L104,158z"/>
					</g>
					<g>
						<path fill="#6B21D6" d="M118,158c0,0.553-0.447,1-1,1h-9c-0.553,0-1-0.447-1-1l0,0c0-0.553,0.447-1,1-1h9
							C117.553,157,118,157.447,118,158L118,158z"/>
					</g>
					<g>
						<path fill="#6B21D6" d="M132,158c0,0.553-0.447,1-1,1h-9c-0.553,0-1-0.447-1-1l0,0c0-0.553,0.447-1,1-1h9
							C131.553,157,132,157.447,132,158L132,158z"/>
					</g>
				</g>
				<g>
					<g>
						<path fill="#6B21D6" d="M104,164c0,0.553-0.447,1-1,1h-9c-0.552,0-1-0.447-1-1l0,0c0-0.553,0.448-1,1-1h9
							C103.553,163,104,163.447,104,164L104,164z"/>
					</g>
					<g>
						<path fill="#6B21D6" d="M118,164c0,0.553-0.447,1-1,1h-9c-0.553,0-1-0.447-1-1l0,0c0-0.553,0.447-1,1-1h9
							C117.553,163,118,163.447,118,164L118,164z"/>
					</g>
					<g>
						<path fill="#6B21D6" d="M132,164c0,0.553-0.447,1-1,1h-9c-0.553,0-1-0.447-1-1l0,0c0-0.553,0.447-1,1-1h9
							C131.553,163,132,163.447,132,164L132,164z"/>
					</g>
				</g>
			</g>
		</g>
		<g>
			<g>
				<g>
					<path fill="#FFFFFF" d="M224,174c-8.271,0-15-6.729-15-15v-55c0-8.271,6.729-15,15-15s15,6.729,15,15v55
						C239,167.271,232.271,174,224,174z"/>
				</g>
				<g>
					<path fill="#6B21D6" d="M224,90c7.72,0,14,6.28,14,14v55c0,7.72-6.28,14-14,14s-14-6.28-14-14v-55C210,96.28,216.28,90,224,90
						 M224,88c-8.837,0-16,7.163-16,16v55c0,8.837,7.163,16,16,16s16-7.163,16-16v-55C240,95.163,232.837,88,224,88L224,88z"/>
				</g>
			</g>
			<g opacity="0.5">
				<g>
					<path fill="#6B21D6" d="M208,104c0-8.837,7.163-16,16-16l0,0c8.837,0,16,7.163,16,16H208z"/>
				</g>
			</g>
			<g>
				<path fill="#6B21D6" d="M224,90c7.041,0,12.884,5.225,13.857,12h-27.715C211.116,95.225,216.959,90,224,90 M224,88
					c-8.837,0-16,7.163-16,16h32C240,95.163,232.837,88,224,88L224,88z"/>
			</g>
			<g>
				<g>
					<path fill="#FFFFFF" d="M195,178v-27c0-1.654,1.346-3,3-3h52c1.654,0,3,1.346,3,3v27H195z"/>
				</g>
				<g>
					<path fill="#6B21D6" d="M250,149c1.103,0,2,0.897,2,2v26h-56v-26c0-1.103,0.897-2,2-2H250 M250,147h-52c-2.21,0-4,1.79-4,4v28
						h60v-28C254,148.79,252.21,147,250,147L250,147z"/>
				</g>
			</g>
			<g>
				<g>
					<g>
						<path fill="#FFFFFF" d="M214,93V69c0-5.514,4.486-10,10-10s10,4.486,10,10v24H214z"/>
					</g>
					<g>
						<path fill="#6B21D6" d="M224,60c4.963,0,9,4.038,9,9v23h-18V69C215,64.038,219.037,60,224,60 M224,58c-6.075,0-11,4.925-11,11
							v25h22V69C235,62.925,230.075,58,224,58L224,58z"/>
					</g>
				</g>
				<g>
					<line fill="#FFFFFF" x1="214" y1="69" x2="234" y2="69"/>
					<rect x="214" y="68" fill="#6B21D6" width="20" height="2"/>
				</g>
				<g>
					<line fill="#FFFFFF" x1="214" y1="73" x2="234" y2="73"/>
					<rect x="214" y="72" fill="#6B21D6" width="20" height="2"/>
				</g>
				<g>
					<line fill="#FFFFFF" x1="214" y1="77" x2="234" y2="77"/>
					<rect x="214" y="76" fill="#6B21D6" width="20" height="2"/>
				</g>
				<g>
					<line fill="#FFFFFF" x1="214" y1="81" x2="234" y2="81"/>
					<rect x="214" y="80" fill="#6B21D6" width="20" height="2"/>
				</g>
				<g>
					<line fill="#FFFFFF" x1="214" y1="85" x2="234" y2="85"/>
					<rect x="214" y="84" fill="#6B21D6" width="20" height="2"/>
				</g>
				<g>
					<line fill="#FFFFFF" x1="214" y1="89" x2="234" y2="89"/>
					<rect x="214" y="88" fill="#6B21D6" width="20" height="2"/>
				</g>
				<g>
					<line fill="#FFFFFF" x1="219" y1="69" x2="219" y2="93"/>
					<rect x="218" y="69" fill="#6B21D6" width="2" height="24"/>
				</g>
				<g>
					<line fill="#FFFFFF" x1="224" y1="69" x2="224" y2="92"/>
					<rect x="223" y="69" fill="#6B21D6" width="2" height="23"/>
				</g>
				<g>
					<line fill="#FFFFFF" x1="229" y1="69" x2="229" y2="93"/>
					<rect x="228" y="69" fill="#6B21D6" width="2" height="24"/>
				</g>
			</g>
			<g>
				<g>
					<path fill="#6B21D6" d="M240,108c0,0.553-0.447,1-1,1h-9c-0.553,0-1-0.447-1-1l0,0c0-0.553,0.447-1,1-1h9
						C239.553,107,240,107.447,240,108L240,108z"/>
				</g>
				<g>
					<path fill="#6B21D6" d="M240,113c0,0.553-0.447,1-1,1h-9c-0.553,0-1-0.447-1-1l0,0c0-0.553,0.447-1,1-1h9
						C239.553,112,240,112.447,240,113L240,113z"/>
				</g>
				<g>
					<path fill="#6B21D6" d="M240,118c0,0.553-0.447,1-1,1h-9c-0.553,0-1-0.447-1-1l0,0c0-0.553,0.447-1,1-1h9
						C239.553,117,240,117.447,240,118L240,118z"/>
				</g>
				<g>
					<path fill="#6B21D6" d="M240,123c0,0.553-0.447,1-1,1h-9c-0.553,0-1-0.447-1-1l0,0c0-0.553,0.447-1,1-1h9
						C239.553,122,240,122.447,240,123L240,123z"/>
				</g>
				<g>
					<path fill="#6B21D6" d="M240,128c0,0.553-0.447,1-1,1h-9c-0.553,0-1-0.447-1-1l0,0c0-0.553,0.447-1,1-1h9
						C239.553,127,240,127.447,240,128L240,128z"/>
				</g>
				<g>
					<path fill="#6B21D6" d="M240,133c0,0.553-0.447,1-1,1h-9c-0.553,0-1-0.447-1-1l0,0c0-0.553,0.447-1,1-1h9
						C239.553,132,240,132.447,240,133L240,133z"/>
				</g>
				<g>
					<path fill="#6B21D6" d="M240,138c0,0.553-0.447,1-1,1h-9c-0.553,0-1-0.447-1-1l0,0c0-0.553,0.447-1,1-1h9
						C239.553,137,240,137.447,240,138L240,138z"/>
				</g>
				<g>
					<path fill="#6B21D6" d="M240,143c0,0.553-0.447,1-1,1h-9c-0.553,0-1-0.447-1-1l0,0c0-0.553,0.447-1,1-1h9
						C239.553,142,240,142.447,240,143L240,143z"/>
				</g>
			</g>
			<g>
				<g>
					<path fill="#6B21D6" d="M219,108c0,0.553-0.447,1-1,1h-9c-0.553,0-1-0.447-1-1l0,0c0-0.553,0.447-1,1-1h9
						C218.553,107,219,107.447,219,108L219,108z"/>
				</g>
				<g>
					<path fill="#6B21D6" d="M219,113c0,0.553-0.447,1-1,1h-9c-0.553,0-1-0.447-1-1l0,0c0-0.553,0.447-1,1-1h9
						C218.553,112,219,112.447,219,113L219,113z"/>
				</g>
				<g>
					<path fill="#6B21D6" d="M219,118c0,0.553-0.447,1-1,1h-9c-0.553,0-1-0.447-1-1l0,0c0-0.553,0.447-1,1-1h9
						C218.553,117,219,117.447,219,118L219,118z"/>
				</g>
				<g>
					<path fill="#6B21D6" d="M219,123c0,0.553-0.447,1-1,1h-9c-0.553,0-1-0.447-1-1l0,0c0-0.553,0.447-1,1-1h9
						C218.553,122,219,122.447,219,123L219,123z"/>
				</g>
				<g>
					<path fill="#6B21D6" d="M219,128c0,0.553-0.447,1-1,1h-9c-0.553,0-1-0.447-1-1l0,0c0-0.553,0.447-1,1-1h9
						C218.553,127,219,127.447,219,128L219,128z"/>
				</g>
				<g>
					<path fill="#6B21D6" d="M219,133c0,0.553-0.447,1-1,1h-9c-0.553,0-1-0.447-1-1l0,0c0-0.553,0.447-1,1-1h9
						C218.553,132,219,132.447,219,133L219,133z"/>
				</g>
				<g>
					<path fill="#6B21D6" d="M219,138c0,0.553-0.447,1-1,1h-9c-0.553,0-1-0.447-1-1l0,0c0-0.553,0.447-1,1-1h9
						C218.553,137,219,137.447,219,138L219,138z"/>
				</g>
				<g>
					<path fill="#6B21D6" d="M219,143c0,0.553-0.447,1-1,1h-9c-0.553,0-1-0.447-1-1l0,0c0-0.553,0.447-1,1-1h9
						C218.553,142,219,142.447,219,143L219,143z"/>
				</g>
			</g>
			<g>
				<g>
					<path fill="#6B21D6" d="M207,154c0,0.553-0.447,1-1,1h-4c-0.553,0-1-0.447-1-1l0,0c0-0.553,0.447-1,1-1h4
						C206.553,153,207,153.447,207,154L207,154z"/>
				</g>
				<g>
					<path fill="#6B21D6" d="M217,154c0,0.553-0.447,1-1,1h-4c-0.553,0-1-0.447-1-1l0,0c0-0.553,0.447-1,1-1h4
						C216.553,153,217,153.447,217,154L217,154z"/>
				</g>
				<g>
					<path fill="#6B21D6" d="M227,154c0,0.553-0.447,1-1,1h-4c-0.553,0-1-0.447-1-1l0,0c0-0.553,0.447-1,1-1h4
						C226.553,153,227,153.447,227,154L227,154z"/>
				</g>
				<g>
					<path fill="#6B21D6" d="M237,154c0,0.553-0.447,1-1,1h-4c-0.553,0-1-0.447-1-1l0,0c0-0.553,0.447-1,1-1h4
						C236.553,153,237,153.447,237,154L237,154z"/>
				</g>
				<g>
					<path fill="#6B21D6" d="M247,154c0,0.553-0.447,1-1,1h-4c-0.553,0-1-0.447-1-1l0,0c0-0.553,0.447-1,1-1h4
						C246.553,153,247,153.447,247,154L247,154z"/>
				</g>
				<g>
					<path fill="#6B21D6" d="M207,160c0,0.553-0.447,1-1,1h-4c-0.553,0-1-0.447-1-1l0,0c0-0.553,0.447-1,1-1h4
						C206.553,159,207,159.447,207,160L207,160z"/>
				</g>
				<g>
					<path fill="#6B21D6" d="M217,160c0,0.553-0.447,1-1,1h-4c-0.553,0-1-0.447-1-1l0,0c0-0.553,0.447-1,1-1h4
						C216.553,159,217,159.447,217,160L217,160z"/>
				</g>
				<g>
					<path fill="#6B21D6" d="M227,160c0,0.553-0.447,1-1,1h-4c-0.553,0-1-0.447-1-1l0,0c0-0.553,0.447-1,1-1h4
						C226.553,159,227,159.447,227,160L227,160z"/>
				</g>
				<g>
					<path fill="#6B21D6" d="M237,160c0,0.553-0.447,1-1,1h-4c-0.553,0-1-0.447-1-1l0,0c0-0.553,0.447-1,1-1h4
						C236.553,159,237,159.447,237,160L237,160z"/>
				</g>
				<g>
					<path fill="#6B21D6" d="M247,160c0,0.553-0.447,1-1,1h-4c-0.553,0-1-0.447-1-1l0,0c0-0.553,0.447-1,1-1h4
						C246.553,159,247,159.447,247,160L247,160z"/>
				</g>
				<g>
					<path fill="#6B21D6" d="M207,166c0,0.553-0.447,1-1,1h-4c-0.553,0-1-0.447-1-1l0,0c0-0.553,0.447-1,1-1h4
						C206.553,165,207,165.447,207,166L207,166z"/>
				</g>
				<g>
					<path fill="#6B21D6" d="M217,166c0,0.553-0.447,1-1,1h-4c-0.553,0-1-0.447-1-1l0,0c0-0.553,0.447-1,1-1h4
						C216.553,165,217,165.447,217,166L217,166z"/>
				</g>
				<g>
					<path fill="#6B21D6" d="M227,166c0,0.553-0.447,1-1,1h-4c-0.553,0-1-0.447-1-1l0,0c0-0.553,0.447-1,1-1h4
						C226.553,165,227,165.447,227,166L227,166z"/>
				</g>
				<g>
					<path fill="#6B21D6" d="M237,166c0,0.553-0.447,1-1,1h-4c-0.553,0-1-0.447-1-1l0,0c0-0.553,0.447-1,1-1h4
						C236.553,165,237,165.447,237,166L237,166z"/>
				</g>
				<g>
					<path fill="#6B21D6" d="M247,166c0,0.553-0.447,1-1,1h-4c-0.553,0-1-0.447-1-1l0,0c0-0.553,0.447-1,1-1h4
						C246.553,165,247,165.447,247,166L247,166z"/>
				</g>
				<g>
					<path fill="#6B21D6" d="M207,172c0,0.553-0.447,1-1,1h-4c-0.553,0-1-0.447-1-1l0,0c0-0.553,0.447-1,1-1h4
						C206.553,171,207,171.447,207,172L207,172z"/>
				</g>
				<g>
					<path fill="#6B21D6" d="M217,172c0,0.553-0.447,1-1,1h-4c-0.553,0-1-0.447-1-1l0,0c0-0.553,0.447-1,1-1h4
						C216.553,171,217,171.447,217,172L217,172z"/>
				</g>
				<g>
					<path fill="#6B21D6" d="M227,172c0,0.553-0.447,1-1,1h-4c-0.553,0-1-0.447-1-1l0,0c0-0.553,0.447-1,1-1h4
						C226.553,171,227,171.447,227,172L227,172z"/>
				</g>
				<g>
					<path fill="#6B21D6" d="M237,172c0,0.553-0.447,1-1,1h-4c-0.553,0-1-0.447-1-1l0,0c0-0.553,0.447-1,1-1h4
						C236.553,171,237,171.447,237,172L237,172z"/>
				</g>
				<g>
					<path fill="#6B21D6" d="M247,172c0,0.553-0.447,1-1,1h-4c-0.553,0-1-0.447-1-1l0,0c0-0.553,0.447-1,1-1h4
						C246.553,171,247,171.447,247,172L247,172z"/>
				</g>
			</g>
		</g>
		<g>
			<path fill="#6B21D6" d="M23,178c0-0.553-0.448-1-1-1H1c-0.552,0-1,0.447-1,1l0,0c0,0.553,0.448,1,1,1h21
				C22.552,179,23,178.553,23,178L23,178z"/>
		</g>
		<g>
			<path fill="#6B21D6" d="M280,178c0,0.553-0.447,1-1,1h-9c-0.553,0-1-0.447-1-1l0,0c0-0.553,0.447-1,1-1h9
				C279.553,177,280,177.447,280,178L280,178z"/>
		</g>
		<g>
			<path fill="#6B21D6" d="M265,178c0,0.553-0.447,1-1,1H29c-0.553,0-1-0.447-1-1l0,0c0-0.553,0.447-1,1-1h235
				C264.553,177,265,177.447,265,178L265,178z"/>
		</g>
		<g>
			<path fill="#6B21D6" d="M288,178c0,0.553-0.447,1-1,1h-2c-0.553,0-1-0.447-1-1l0,0c0-0.553,0.447-1,1-1h2
				C287.553,177,288,177.447,288,178L288,178z"/>
		</g>
	</g>
</g>
</svg>
