<?xml version="1.0" encoding="utf-8"?>
<!-- Generator: Adobe Illustrator 16.0.3, SVG Export Plug-In . SVG Version: 6.00 Build 0)  -->
<!DOCTYPE svg PUBLIC "-//W3C//DTD SVG 1.1//EN" "http://www.w3.org/Graphics/SVG/1.1/DTD/svg11.dtd">
<svg version="1.1" xmlns="http://www.w3.org/2000/svg" xmlns:xlink="http://www.w3.org/1999/xlink" x="0px" y="0px" width="90px"
	 height="60px" viewBox="0 0 90 60" enable-background="new 0 0 90 60" xml:space="preserve">
<g id="Internet">
	<linearGradient id="SVGID_1_" gradientUnits="userSpaceOnUse" x1="21.373" y1="29.3135" x2="68.627" y2="29.3135">
		<stop  offset="0" style="stop-color:#5421D6"/>
		<stop  offset="1" style="stop-color:#B12BE3"/>
	</linearGradient>
	<path display="inline" fill="url(#SVGID_1_)" d="M67.627,24c-0.256,0-0.512-0.098-0.707-0.293c-5.854-5.855-13.64-9.08-21.92-9.08
		s-16.065,3.225-21.92,9.08c-0.391,0.391-1.023,0.391-1.414,0s-0.391-1.023,0-1.414c6.232-6.233,14.52-9.666,23.334-9.666
		s17.102,3.433,23.334,9.666c0.391,0.391,0.391,1.023,0,1.414C68.139,23.902,67.883,24,67.627,24z M62.678,29.364
		c0.391-0.391,0.391-1.023,0-1.414c-9.747-9.748-25.608-9.749-35.355,0c-0.391,0.391-0.391,1.023,0,1.414s1.023,0.391,1.414,0
		c8.968-8.968,23.559-8.968,32.527,0c0.195,0.195,0.451,0.293,0.707,0.293S62.482,29.56,62.678,29.364z M45,40c-1.103,0-2,0.897-2,2
		s0.897,2,2,2c1.103,0,2-0.897,2-2S46.103,40,45,40 M45,38c2.209,0,4,1.791,4,4s-1.791,4-4,4s-4-1.791-4-4S42.791,38,45,38L45,38z
		 M57.021,35.021c0.391-0.391,0.391-1.023,0-1.414C53.81,30.396,49.54,28.627,45,28.627c-4.541,0-8.81,1.768-12.02,4.979
		c-0.391,0.391-0.391,1.023,0,1.414s1.023,0.391,1.414,0c2.833-2.833,6.599-4.393,10.606-4.393c4.006,0,7.774,1.56,10.607,4.393
		c0.195,0.195,0.451,0.293,0.707,0.293S56.825,35.216,57.021,35.021z"/>
</g>
</svg>