<?xml version="1.0" encoding="utf-8"?>
<!-- Generator: Adobe Illustrator 16.0.3, SVG Export Plug-In . SVG Version: 6.00 Build 0)  -->
<!DOCTYPE svg PUBLIC "-//W3C//DTD SVG 1.1//EN" "http://www.w3.org/Graphics/SVG/1.1/DTD/svg11.dtd">
<svg version="1.1" xmlns="http://www.w3.org/2000/svg" xmlns:xlink="http://www.w3.org/1999/xlink" x="0px" y="0px" width="96px"
	 height="112px" viewBox="0 0 96 112" enable-background="new 0 0 96 112" xml:space="preserve">
<g id="Layer_1_copy">
	<g id="Layer_2_copy">
		<path opacity="0.2" fill-rule="evenodd" clip-rule="evenodd" fill="#6B21D6" d="M30,46h6c1.657,0,3,1.343,3,3v6
			c0,1.657-1.343,3-3,3h-6c-1.657,0-3-1.343-3-3v-6C27,47.343,28.343,46,30,46z"/>
		<path opacity="0.2" fill-rule="evenodd" clip-rule="evenodd" fill="#6B21D6" d="M30,66h6c1.657,0,3,1.344,3,3v6
			c0,1.657-1.343,3-3,3h-6c-1.657,0-3-1.343-3-3v-6C27,67.344,28.343,66,30,66z"/>
		<path opacity="0.1" fill-rule="evenodd" clip-rule="evenodd" fill="#6B21D6" d="M23,22h60c5.523,0,10,4.478,10,10v70
			c0,5.523-4.477,10-10,10H23c-5.523,0-10-4.477-10-10V32C13,26.478,17.477,22,23,22z"/>
	</g>
	<path fill="#6B21D6" d="M78,108.5H18c-6.341,0-11.5-5.159-11.5-11.5V27c0-6.341,5.159-11.5,11.5-11.5h5c0.829,0,1.5,0.671,1.5,1.5
		s-0.671,1.5-1.5,1.5h-5c-4.687,0-8.5,3.813-8.5,8.5v70c0,4.687,3.813,8.5,8.5,8.5h60c4.687,0,8.5-3.813,8.5-8.5V27
		c0-4.687-3.813-8.5-8.5-8.5H68c-3.29,0-5.5-2.21-5.5-5.5c0-3.584-2.916-6.5-6.5-6.5H39c-3.584,0-6.5,2.916-6.5,6.5v4.5
		c0,0.829-0.671,1.5-1.5,1.5s-1.5-0.671-1.5-1.5V13c0-5.238,4.262-9.5,9.5-9.5h17c5.238,0,9.5,4.262,9.5,9.5
		c0,1.659,0.841,2.5,2.5,2.5h10c6.341,0,11.5,5.159,11.5,11.5v70C89.5,103.341,84.341,108.5,78,108.5z M40.75,17.5V15
		c0-1.241,1.009-2.25,2.25-2.25h10c0.414,0,0.75-0.336,0.75-0.75s-0.336-0.75-0.75-0.75H43c-2.068,0-3.75,1.682-3.75,3.75v2.5
		c0,0.414,0.336,0.75,0.75,0.75S40.75,17.914,40.75,17.5z M75,28.5H20c-0.827,0-1.5,0.673-1.5,1.5v64c0,0.827,0.673,1.5,1.5,1.5h55
		c0.827,0,1.5-0.673,1.5-1.5V30C76.5,29.173,75.827,28.5,75,28.5 M75,27c1.656,0,3,1.343,3,3v64c0,1.657-1.344,3-3,3H20
		c-1.657,0-3-1.343-3-3V30c0-1.657,1.343-3,3-3H75L75,27z M38.53,63.53c0.293-0.293,0.293-0.768,0-1.061s-0.768-0.293-1.061,0
		L31,68.939l-2.47-2.47c-0.293-0.293-0.768-0.293-1.061,0s-0.293,0.768,0,1.061l3.53,3.53L38.53,63.53z M36.75,72v-2
		c0-0.414-0.336-0.75-0.75-0.75s-0.75,0.336-0.75,0.75v2c0,1.24-1.009,2.25-2.25,2.25h-6c-1.241,0-2.25-1.01-2.25-2.25v-6
		c0-1.24,1.009-2.25,2.25-2.25h6c0.414,0,0.75-0.336,0.75-0.75s-0.336-0.75-0.75-0.75h-6c-2.068,0-3.75,1.683-3.75,3.75v6
		c0,2.067,1.682,3.75,3.75,3.75h6C35.068,75.75,36.75,74.067,36.75,72z M38.53,43.53c0.293-0.293,0.293-0.768,0-1.061
		s-0.768-0.293-1.061,0L31,48.939l-2.47-2.47c-0.293-0.293-0.768-0.293-1.061,0s-0.293,0.768,0,1.061l3.53,3.53L38.53,43.53z
		 M36.75,52v-2c0-0.414-0.336-0.75-0.75-0.75s-0.75,0.336-0.75,0.75v2c0,1.241-1.009,2.25-2.25,2.25h-6
		c-1.241,0-2.25-1.009-2.25-2.25v-6c0-1.241,1.009-2.25,2.25-2.25h6c0.414,0,0.75-0.336,0.75-0.75s-0.336-0.75-0.75-0.75h-6
		c-2.068,0-3.75,1.682-3.75,3.75v6c0,2.068,1.682,3.75,3.75,3.75h6C35.068,55.75,36.75,54.068,36.75,52z M52.75,47
		c0-0.414-0.336-0.75-0.75-0.75h-6c-0.414,0-0.75,0.336-0.75,0.75s0.336,0.75,0.75,0.75h6C52.414,47.75,52.75,47.414,52.75,47z
		 M50.75,52c0-0.414-0.336-0.75-0.75-0.75h-4c-0.414,0-0.75,0.336-0.75,0.75s0.336,0.75,0.75,0.75h4
		C50.414,52.75,50.75,52.414,50.75,52z M71.75,47c0-0.414-0.336-0.75-0.75-0.75H57c-0.414,0-0.75,0.336-0.75,0.75
		s0.336,0.75,0.75,0.75h14C71.414,47.75,71.75,47.414,71.75,47z M61.75,52c0-0.414-0.336-0.75-0.75-0.75h-6
		c-0.414,0-0.75,0.336-0.75,0.75s0.336,0.75,0.75,0.75h6C61.414,52.75,61.75,52.414,61.75,52z M71.75,67
		c0-0.414-0.336-0.75-0.75-0.75H57c-0.414,0-0.75,0.336-0.75,0.75s0.336,0.75,0.75,0.75h14C71.414,67.75,71.75,67.414,71.75,67z
		 M71.75,52c0-0.414-0.336-0.75-0.75-0.75h-5c-0.414,0-0.75,0.336-0.75,0.75s0.336,0.75,0.75,0.75h5
		C71.414,52.75,71.75,52.414,71.75,52z M52.75,67c0-0.414-0.336-0.75-0.75-0.75h-6c-0.414,0-0.75,0.336-0.75,0.75
		s0.336,0.75,0.75,0.75h6C52.414,67.75,52.75,67.414,52.75,67z M50.75,72c0-0.414-0.336-0.75-0.75-0.75h-4
		c-0.414,0-0.75,0.336-0.75,0.75s0.336,0.75,0.75,0.75h4C50.414,72.75,50.75,72.414,50.75,72z M61.75,72
		c0-0.414-0.336-0.75-0.75-0.75h-6c-0.414,0-0.75,0.336-0.75,0.75s0.336,0.75,0.75,0.75h6C61.414,72.75,61.75,72.414,61.75,72z
		 M71.75,72c0-0.414-0.336-0.75-0.75-0.75h-5c-0.414,0-0.75,0.336-0.75,0.75s0.336,0.75,0.75,0.75h5
		C71.414,72.75,71.75,72.414,71.75,72z"/>
</g>
</svg>
