<?xml version="1.0" encoding="utf-8"?>
<!-- Generator: Adobe Illustrator 16.0.3, SVG Export Plug-In . SVG Version: 6.00 Build 0)  -->
<!DOCTYPE svg PUBLIC "-//W3C//DTD SVG 1.1//EN" "http://www.w3.org/Graphics/SVG/1.1/DTD/svg11.dtd">
<svg version="1.1" xmlns="http://www.w3.org/2000/svg" xmlns:xlink="http://www.w3.org/1999/xlink" x="0px" y="0px" width="90px"
	 height="60px" viewBox="0 0 90 60" enable-background="new 0 0 90 60" xml:space="preserve">
<g id="OASIS">
	<linearGradient id="SVGID_5_" gradientUnits="userSpaceOnUse" x1="1" y1="30.5" x2="89" y2="30.5">
		<stop  offset="0" style="stop-color:#5421D6"/>
		<stop  offset="1" style="stop-color:#B12BE3"/>
	</linearGradient>
	<path fill="url(#SVGID_5_)" d="M53,50c0,4.411-3.589,8-8,8c-2.218,0-4.366-0.918-5.895-2.519c-1.452-1.52-2.199-3.482-2.105-5.527
		c0.025-0.552,0.504-0.984,1.045-0.953c0.552,0.025,0.979,0.493,0.953,1.045c-0.069,1.494,0.483,2.934,1.553,4.055
		C41.704,55.308,43.325,56,45,56c3.309,0,6-2.691,6-6c0-0.553,0.447-1,1-1S53,49.447,53,50z M3,22.243
		C3,16.1,5.391,10.324,9.735,5.98c0.391-0.391,0.391-1.023,0-1.414s-1.023-0.391-1.414,0C3.601,9.288,1,15.565,1,22.243
		s2.6,12.956,7.321,17.678c0.195,0.195,0.451,0.293,0.707,0.293s0.512-0.098,0.707-0.293c0.391-0.391,0.391-1.023,0-1.414
		C5.391,34.162,3,28.387,3,22.243z M18.221,13.051c-0.391-0.391-1.023-0.391-1.414,0C14.352,15.505,13,18.77,13,22.243
		s1.352,6.737,3.807,9.193c0.195,0.195,0.451,0.293,0.707,0.293s0.512-0.098,0.707-0.293c0.391-0.391,0.391-1.023,0-1.414
		c-2.078-2.078-3.222-4.84-3.222-7.779c0-2.938,1.145-5.7,3.222-7.778C18.611,14.075,18.611,13.441,18.221,13.051z M9,22.243
		c0-4.541,1.769-8.81,4.979-12.021c0.39-0.391,0.39-1.023,0-1.414c-0.391-0.391-1.023-0.391-1.414,0C8.976,12.397,7,17.168,7,22.243
		s1.976,9.847,5.564,13.436c0.195,0.195,0.451,0.293,0.707,0.293s0.512-0.098,0.707-0.293c0.39-0.391,0.39-1.023,0-1.414
		C10.768,31.054,9,26.784,9,22.243z M45,12c-6.617,0-12,5.383-12,12c0,0.552,0.448,1,1,1s1-0.448,1-1c0-5.514,4.486-10,10-10
		c0.552,0,1-0.448,1-1S45.552,12,45,12z M81.701,5.566c-0.389-0.391-1.02-0.391-1.409,0s-0.39,1.023,0,1.414
		c4.331,4.344,6.715,10.12,6.715,16.263s-2.384,11.919-6.715,16.264c-0.39,0.391-0.39,1.023,0,1.414
		c0.194,0.195,0.45,0.293,0.705,0.293s0.51-0.098,0.704-0.293c4.708-4.722,7.299-11,7.299-17.678S86.408,10.288,81.701,5.566z
		 M69,43c0,2.209-1.791,4-4,4H25c-2.209,0-4-1.791-4-4c0-2.107,1.635-3.814,3.702-3.97c0.061-0.039,0.157-0.062,0.298-0.062
		c2.209,0,4-1.791,4-4V23c0-7.096,4.624-13.104,11.02-15.199C40.127,5.138,42.312,3,45,3s4.873,2.138,4.979,4.801
		C56.376,9.896,61,15.904,61,23v12c0,2.209,1.791,4,4,4S69,40.791,69,43z M42.099,7.276C43.041,7.103,44.008,7,45,7
		s1.959,0.103,2.901,0.276C47.575,5.972,46.403,5,45,5S42.425,5.972,42.099,7.276z M67,43c0-1.103-0.897-2-2-2c-3.309,0-6-2.691-6-6
		V23c0-7.72-6.28-14-14-14s-14,6.28-14,14v11.969c0,3.171-2.473,5.775-5.592,5.986l-0.049,0.031l-0.507,0.038
		C23.813,41.103,23,41.971,23,43c0,1.103,0.897,2,2,2h40C66.103,45,67,44.103,67,43z M77.457,9.808c-0.389-0.391-1.02-0.391-1.408,0
		c-0.39,0.391-0.39,1.023,0,1.414c3.198,3.211,4.959,7.48,4.959,12.021c0,4.541-1.761,8.811-4.959,12.021
		c-0.39,0.391-0.39,1.023,0,1.414c0.194,0.195,0.449,0.293,0.704,0.293s0.51-0.098,0.704-0.293C81.031,33.09,83,28.318,83,23.243
		S81.031,13.397,77.457,9.808z M73.212,14.051c-0.389-0.391-1.019-0.391-1.407,0c-0.388,0.391-0.388,1.024,0,1.414
		c2.067,2.078,3.206,4.84,3.206,7.778c0,2.938-1.139,5.701-3.206,7.779c-0.388,0.391-0.388,1.023,0,1.414
		c0.194,0.195,0.449,0.293,0.704,0.293c0.254,0,0.509-0.098,0.703-0.293C75.654,29.98,77,26.715,77,23.243
		S75.654,16.505,73.212,14.051z"/>
</g>
</svg>
