<?xml version="1.0" encoding="utf-8"?>
<!-- Generator: Adobe Illustrator 16.0.3, SVG Export Plug-In . SVG Version: 6.00 Build 0)  -->
<!DOCTYPE svg PUBLIC "-//W3C//DTD SVG 1.1//EN" "http://www.w3.org/Graphics/SVG/1.1/DTD/svg11.dtd">
<svg version="1.1" xmlns="http://www.w3.org/2000/svg" xmlns:xlink="http://www.w3.org/1999/xlink" x="0px" y="0px" width="90px"
	 height="60px" viewBox="0 0 90 60" enable-background="new 0 0 90 60" xml:space="preserve">
<g id="TV">
	<linearGradient id="SVGID_2_" gradientUnits="userSpaceOnUse" x1="21" y1="30.5" x2="69" y2="30.5">
		<stop  offset="0" style="stop-color:#5421D6"/>
		<stop  offset="1" style="stop-color:#B12BE3"/>
	</linearGradient>
	<path fill="url(#SVGID_2_)" d="M64,13c1.654,0,3,1.346,3,3v22c0,1.654-1.346,3-3,3H26c-1.654,0-3-1.346-3-3V16c0-1.654,1.346-3,3-3
		H64 M64,11H26c-2.762,0-5,2.239-5,5v22c0,2.762,2.238,5,5,5h38c2.762,0,5-2.238,5-5V16C69,13.239,66.762,11,64,11L64,11z M27,27v-9
		c0-0.551,0.449-1,1-1h17c0.552,0,1-0.448,1-1s-0.448-1-1-1H28c-1.654,0-3,1.346-3,3v9c0,0.552,0.448,1,1,1S27,27.552,27,27z M44,46
		c0-0.553-0.448-1-1-1s-1,0.447-1,1c0,1.103-0.897,2-2,2h-6c-0.552,0-1,0.447-1,1s0.448,1,1,1h6C42.206,50,44,48.206,44,46z M57,49
		c0-0.553-0.447-1-1-1h-6c-1.103,0-2-0.897-2-2c0-0.553-0.447-1-1-1s-1,0.447-1,1c0,2.206,1.794,4,4,4h6C56.553,50,57,49.553,57,49z
		"/>
</g>
</svg>
