<?xml version="1.0" encoding="utf-8"?>
<!-- Generator: Adobe Illustrator 16.0.3, SVG Export Plug-In . SVG Version: 6.00 Build 0)  -->
<!DOCTYPE svg PUBLIC "-//W3C//DTD SVG 1.1//EN" "http://www.w3.org/Graphics/SVG/1.1/DTD/svg11.dtd">
<svg version="1.1" xmlns="http://www.w3.org/2000/svg" xmlns:xlink="http://www.w3.org/1999/xlink" x="0px" y="0px" width="90px"
	 height="60px" viewBox="0 0 90 60" enable-background="new 0 0 90 60" xml:space="preserve">
<g id="VoIP">
	<linearGradient id="SVGID_3_" gradientUnits="userSpaceOnUse" x1="26.9995" y1="29.8398" x2="63.6289" y2="29.8398">
		<stop  offset="0" style="stop-color:#5421D6"/>
		<stop  offset="1" style="stop-color:#B12BE3"/>
	</linearGradient>
	<path display="inline" fill="url(#SVGID_3_)" d="M34.781,22c0.298,0,0.638,0.017,1.008,0.049c0.098,0.009,0.182,0.019,0.254,0.028
		c0.045,0.16,0.103,0.368,0.172,0.636c0.216,0.832,0.45,1.784,0.703,2.854c0.372,1.576,0.454,1.867,0.5,2.015h0
		c0.037,0.118,0.124,0.372,0.265,0.76c0.035,0.095,0.063,0.179,0.088,0.252c-0.223,0.123-0.645,0.334-1.434,0.673
		c-0.857,0.37-1.488,0.674-1.925,0.927c-0.961,0.553-1.56,1.19-1.819,1.918c-0.151,0.406-0.208,0.865-0.167,1.367
		c0.026,0.328,0.079,0.641,0.157,0.925l0.149,0.561l0.016,0.062c0.064,0.248,0.108,0.415,0.132,0.502
		c0.614,2.472,1.542,4.795,2.761,6.905s2.765,4.075,4.597,5.84c0.068,0.069,0.191,0.191,0.366,0.364l0.458,0.456
		c0.211,0.213,0.448,0.409,0.724,0.601c0.411,0.284,0.837,0.465,1.241,0.534c0.164,0.029,0.333,0.045,0.503,0.045
		c0.646,0,1.331-0.215,2.091-0.654c0.444-0.255,1.023-0.65,1.769-1.207c0.704-0.523,1.091-0.778,1.301-0.904
		c0.051,0.058,0.109,0.124,0.174,0.2c0.357,0.427,0.479,0.563,0.55,0.637c0.082,0.089,0.298,0.311,1.471,1.416
		c0.803,0.756,1.509,1.435,2.12,2.037c0.198,0.194,0.35,0.348,0.466,0.467c-0.027,0.067-0.062,0.146-0.103,0.234
		c-0.368,0.789-0.659,1.241-0.874,1.519c-0.234,0.197-0.951,0.679-1.3,0.88c-0.202,0.116-0.725,0.358-1.965,0.677l-0.03,0.007
		l-0.126,0.026c-0.616,0.14-1.219,0.21-1.789,0.21c-0.984,0-1.889-0.201-2.767-0.616c-0.452-0.214-1.475-0.813-3.779-2.445
		c-1.566-1.114-2.944-2.376-4.094-3.753c-1.187-1.419-2.368-3.143-3.511-5.123c-1.143-1.979-2.045-3.864-2.682-5.602
		c-0.618-1.688-1.022-3.513-1.207-5.465c-0.013-0.106-0.024-0.256-0.035-0.444l-0.002-0.033l-0.003-0.033
		c-0.115-1.271-0.184-2.18-0.204-2.699c-0.017-0.446,0.022-1.097,0.118-1.935c0.077-0.668,0.252-1.251,0.521-1.731
		c0.319-0.57,0.792-1.188,1.383-1.813c0.913-0.936,1.395-1.276,1.602-1.395c0.348-0.201,1.125-0.583,1.412-0.686
		C34.244,22.015,34.494,22,34.781,22 M34.781,20c-0.43,0-0.809,0.027-1.137,0.082c-0.381,0.055-1.631,0.693-2.018,0.917
		c-0.525,0.304-1.203,0.88-2.032,1.73c-0.729,0.772-1.295,1.516-1.696,2.232c-0.4,0.716-0.655,1.543-0.763,2.482
		c-0.107,0.939-0.151,1.685-0.13,2.24s0.092,1.489,0.211,2.802c0.014,0.238,0.029,0.426,0.045,0.561
		c0.197,2.093,0.637,4.067,1.315,5.922c0.68,1.855,1.622,3.826,2.827,5.914s2.441,3.891,3.709,5.406
		c1.267,1.516,2.757,2.882,4.47,4.1c1.956,1.387,3.316,2.261,4.082,2.623c1.14,0.539,2.347,0.809,3.622,0.809
		c0.722,0,1.466-0.086,2.231-0.26c0.055-0.012,0.11-0.022,0.165-0.034c1.15-0.293,1.989-0.591,2.515-0.895
		c0.387-0.224,1.564-0.986,1.803-1.289c0.388-0.471,0.782-1.137,1.183-1.996c0.4-0.861,0.502-1.461,0.306-1.801
		c-0.099-0.171-0.458-0.561-1.078-1.171c-0.621-0.611-1.338-1.301-2.152-2.067c-0.814-0.768-1.276-1.212-1.388-1.333
		c-0.052-0.053-0.209-0.235-0.471-0.548c-0.264-0.312-0.49-0.553-0.68-0.721c-0.19-0.169-0.391-0.274-0.602-0.318
		c-0.072-0.017-0.149-0.025-0.23-0.025c-0.316,0-0.696,0.128-1.14,0.384c-0.356,0.205-0.872,0.561-1.55,1.064
		c-0.679,0.506-1.203,0.865-1.574,1.079c-0.445,0.258-0.81,0.387-1.093,0.387c-0.051,0-0.099-0.004-0.145-0.013
		c-0.138-0.023-0.292-0.094-0.463-0.212s-0.317-0.238-0.441-0.363c-0.124-0.124-0.281-0.281-0.472-0.47
		c-0.191-0.188-0.313-0.31-0.364-0.362c-1.716-1.649-3.14-3.456-4.273-5.42s-1.986-4.101-2.558-6.411
		c-0.02-0.07-0.063-0.235-0.131-0.496c-0.068-0.259-0.125-0.474-0.171-0.644c-0.046-0.169-0.077-0.356-0.094-0.563
		s-0.001-0.377,0.048-0.508c0.102-0.285,0.416-0.581,0.942-0.884c0.371-0.215,0.944-0.489,1.721-0.824
		c0.776-0.334,1.341-0.604,1.697-0.81c0.557-0.321,0.889-0.657,0.995-1.008c0.068-0.204,0.076-0.431,0.025-0.68
		s-0.146-0.565-0.285-0.949c-0.139-0.383-0.218-0.61-0.238-0.681c-0.05-0.157-0.203-0.78-0.46-1.869
		c-0.258-1.088-0.495-2.054-0.714-2.897c-0.219-0.842-0.377-1.349-0.476-1.52c-0.196-0.34-0.767-0.552-1.712-0.635
		C35.534,20.019,35.14,20,34.781,20L34.781,20z M60.296,36.124c3.326-5.791,4.198-12.531,2.456-18.977
		C61.009,10.701,56.86,5.32,51.069,1.995c-0.48-0.276-1.091-0.109-1.365,0.369c-0.275,0.479-0.109,1.09,0.369,1.365
		c5.327,3.059,9.145,8.01,10.748,13.94c1.603,5.93,0.801,12.13-2.26,17.458c-0.275,0.479-0.109,1.09,0.369,1.365
		c0.157,0.09,0.328,0.133,0.497,0.133C59.774,36.626,60.111,36.446,60.296,36.124z M49.891,30.147
		c1.729-3.011,2.183-6.516,1.276-9.868c-0.906-3.352-3.064-6.15-6.075-7.879c-0.48-0.277-1.09-0.11-1.365,0.369
		s-0.11,1.09,0.369,1.365c2.548,1.463,4.373,3.831,5.141,6.667c0.767,2.836,0.384,5.802-1.08,8.35
		c-0.275,0.479-0.109,1.09,0.369,1.365c0.157,0.09,0.328,0.133,0.497,0.133C49.369,30.649,49.706,30.469,49.891,30.147z
		 M55.094,33.136c5.218-9.085,2.071-20.721-7.014-25.939c-0.48-0.276-1.091-0.11-1.365,0.369c-0.275,0.479-0.109,1.09,0.369,1.365
		c8.129,4.669,10.943,15.08,6.275,23.209c-0.275,0.479-0.109,1.09,0.369,1.365c0.157,0.09,0.328,0.133,0.497,0.133
		C54.572,33.638,54.909,33.458,55.094,33.136z"/>
</g>
</svg>
