<?xml version="1.0" encoding="utf-8"?>
<!-- Generator: Adobe Illustrator 16.0.0, SVG Export Plug-In . SVG Version: 6.00 Build 0)  -->
<!DOCTYPE svg PUBLIC "-//W3C//DTD SVG 1.1//EN" "http://www.w3.org/Graphics/SVG/1.1/DTD/svg11.dtd">
<svg version="1.1" id="Layer_1" xmlns="http://www.w3.org/2000/svg" xmlns:xlink="http://www.w3.org/1999/xlink" x="0px" y="0px"
	 width="217.492px" height="82.83px" viewBox="0 0 217.492 82.83" enable-background="new 0 0 217.492 82.83" xml:space="preserve">
<path fill-rule="evenodd" clip-rule="evenodd" fill="#FFFFFF" d="M20.282,61.97C7.563,56.79,0.344,47.532,0.115,38.164
	c0,0.771,0,1.764-0.115,2.535c0.115,1.654,0.344,3.748,0.344,5.511c1.375,8.487,8.365,16.532,19.938,21.271
	c6.417,2.534,13.178,3.637,19.938,3.637v-5.29C33.459,65.827,26.699,64.395,20.282,61.97"/>
<path fill-rule="evenodd" clip-rule="evenodd" fill="#FFFFFF" d="M76.893,29.678c0,11.67-10.52,21.66-26.37,24.65l-3.97-6.49
	c16.2-2.24,26.44-12.17,26.44-21.58c0-7.05-3.78-11.68-6.07-13.77C70.013,14.908,76.893,21.518,76.893,29.678z"/>
<path fill-rule="evenodd" clip-rule="evenodd" fill="#FFFFFF" d="M41.493,55.228c-0.34,0.021-0.69,0.021-1.04,0.021c0,0,0,0-0.23,0
	c-21.32,0-36.44-11.57-36.44-25.57c0-8.16,6.76-14.77,9.74-17.19h0.23c-2.18,2.09-5.96,6.72-5.96,13.77c0,10.19,12.01,21,30.3,21.98
	v0.01l0.01,0.26l0.02,0.26l0.04,0.26l0.05,0.25l0.06,0.25l0.01,0.051l-0.13,0.149l0.57,0.98l0.03,0.05l0.04,0.07l0.04,0.06
	l0.03,0.05l0.04,0.061l0.03,0.05l0.01,0.02L41.493,55.228z"/>
<path fill-rule="evenodd" clip-rule="evenodd" fill="#FFFFFF" d="M21.084,73.652c-5.386-2.314-9.167-4.96-12.719-8.817l-0.229,0.221
	c2.75,2.976,6.417,6.723,12.375,10.139c6.188,3.417,13.521,4.96,19.709,4.96v-3.086C33.459,77.068,27.845,76.518,21.084,73.652"/>
<path fill-rule="evenodd" clip-rule="evenodd" fill="#FFFFFF" d="M23.72,15.681c0-7.605,7.906-12.014,16.5-11.903c0-0.11,0-0.11,0,0
	V2.676c-7.792,0-23.261,4.078-23.261,16.091c0,7.494,8.708,16.091,23.261,16.091v-7.054C32.658,27.804,23.72,23.947,23.72,15.681"/>
<path fill="#FFFFFF" d="M183.439,45.354c0.82-0.315,1.651-0.459,2.472-0.459h27.693c1.84,0,2.753,1.12,2.753,3.357
	c0,2.268-0.913,3.401-2.753,3.401l0,0h-27.658c-0.023,0-0.035,0-0.035,0l0,0c-1.851,0-2.776,1.133-2.776,3.415
	c0,2.238,0.926,3.357,2.776,3.357h19.389c1.839,0,2.752,1.134,2.752,3.4c0,2.253-0.913,3.372-2.752,3.372l0,0h-19.389
	c-1.851,0-2.776,1.134-2.776,3.4s0.926,3.4,2.776,3.4l0,0c0,0,0.012,0,0.035,0h27.658c1.84,0,2.753,1.119,2.753,3.372
	c0,2.268-0.913,3.4-2.753,3.4c0,0,0,0-0.011,0c-0.013,0-0.024,0-0.024,0h-27.658h-0.012c-0.012,0-0.023,0-0.023,0h0.035
	c-1.464,0-2.812-0.431-4.053-1.306c-2.718-1.851-4.124-4.663-4.218-8.451c0-0.086-0.012-0.144-0.023-0.2
	c-0.012-0.058-0.012-0.13-0.012-0.216c0-2.525,0.715-4.778,2.133-6.772c-1.418-1.951-2.133-4.219-2.133-6.758
	c0-0.029,0-0.072,0.012-0.115s0.023-0.071,0.023-0.101c0.023-2.152,0.574-4.118,1.664-5.883
	C180.393,47.205,181.764,46,183.439,45.354 M158.487,74.696l-11.973-19.628c-0.387-0.617-0.878-1.35-1.476-2.167
	c-0.598-0.832-1.277-1.248-2.026-1.248c-1.852,0-2.777,1.133-2.777,3.415l0,0v9.541v10.762c0,2.268-0.913,3.4-2.752,3.4
	c-1.852,0-2.777-1.133-2.777-3.4V55.068c0-2.813,0.809-5.209,2.438-7.189c1.628-1.994,3.584-2.984,5.869-2.984
	c2.74,0,4.955,1.349,6.618,4.075l11.984,19.629c0.363,0.674,0.854,1.406,1.452,2.21c0.609,0.789,1.301,1.19,2.086,1.19
	c1.827,0,2.741-1.134,2.741-3.4l0,0v-13.53v-6.816c0-2.238,0.925-3.357,2.776-3.357c1.862,0,2.788,1.12,2.788,3.357v20.347
	c0,2.798-0.82,5.194-2.46,7.188c-1.641,1.994-3.585,2.984-5.846,2.984C162.353,78.771,160.138,77.408,158.487,74.696z
	 M127.806,44.895c1.862,0,2.788,1.12,2.788,3.357c0,2.268-0.926,3.401-2.788,3.401c-1.851,0-2.776-1.134-2.776-3.401
	C125.03,46.014,125.956,44.895,127.806,44.895z M130.594,75.371c0,2.268-0.926,3.4-2.788,3.4c-1.851,0-2.776-1.133-2.776-3.4V58.426
	c0-2.238,0.926-3.357,2.776-3.357c1.862,0,2.788,1.119,2.788,3.357V75.371z M90.437,71.999h27.658c1.863,0,2.788,1.119,2.788,3.372
	c0,2.268-0.925,3.4-2.788,3.4H90.437c-2.285,0-4.241-0.99-5.869-2.984s-2.437-4.391-2.437-7.188V48.252
	c0-2.238,0.925-3.357,2.776-3.357c1.839,0,2.753,1.12,2.753,3.357v10.762v9.585C87.66,70.865,88.585,71.999,90.437,71.999z
	 M60.681,77.639h-0.035c-0.551,0.76-1.23,1.133-2.062,1.133c-0.046,0-0.082,0-0.117,0c-0.036,0-0.047,0-0.047,0
	c-0.023,0-0.035,0-0.035,0l0,0c-0.024,0-0.047,0-0.059,0s-0.012,0-0.012,0c-0.527-0.086-0.972-0.301-1.335-0.631
	c0,0-0.023-0.028-0.07-0.086c-0.046,0-0.093-0.015-0.117-0.058c-0.035-0.043-0.07-0.086-0.094-0.115
	c-0.023-0.043-0.082-0.129-0.164-0.243l-0.035-0.044c0,0-0.012-0.014-0.023-0.028c-0.012,0-0.012-0.015-0.012-0.015l0,0
	c0,0,0,0,0-0.014c0-0.015,0-0.028,0-0.028c-0.023,0-0.036,0-0.036,0l0,0c-0.046-0.058-0.082-0.102-0.105-0.145
	s-0.047-0.1-0.07-0.187L39.888,50.434c-0.024-0.029-0.082-0.115-0.176-0.287l-0.175-0.302l0.035-0.043
	c-0.223-0.502-0.34-1.019-0.34-1.55c0-2.238,0.926-3.357,2.776-3.357c0.785,0,1.441,0.345,1.992,1.047l0.035-0.042l14.549,23.79
	l14.562-23.79l0.023,0.042c0.575-0.703,1.242-1.047,1.992-1.047c1.863,0,2.788,1.12,2.788,3.357c0,0.531-0.117,1.048-0.351,1.55
	l0.035,0.043l-0.165,0.302c-0.094,0.172-0.152,0.258-0.176,0.287L60.927,77.179c-0.047,0.087-0.094,0.158-0.141,0.229
	C60.74,77.48,60.705,77.552,60.681,77.639z"/>
</svg>
