<?xml version="1.0" encoding="utf-8"?>
<!-- Generator: Adobe Illustrator 16.0.3, SVG Export Plug-In . SVG Version: 6.00 Build 0)  -->
<!DOCTYPE svg PUBLIC "-//W3C//DTD SVG 1.1//EN" "http://www.w3.org/Graphics/SVG/1.1/DTD/svg11.dtd">
<svg version="1.1" id="Layer_1" xmlns="http://www.w3.org/2000/svg" xmlns:xlink="http://www.w3.org/1999/xlink" x="0px" y="0px"
	 width="276.219px" height="105.201px" viewBox="0 0 276.219 105.201" enable-background="new 0 0 276.219 105.201"
	 xml:space="preserve">
<path fill-rule="evenodd" clip-rule="evenodd" fill="#FFFFFF" d="M266.219,85.201h-21.606c1.334,6.896,6.017,12,11.606,12
	c4.836,0,9.335-1.436,13.104-3.896l0.068,0.067c0.724-0.724,1.724-1.171,2.828-1.171c2.209,0,4,1.791,4,4
	c0,1.104-0.448,2.104-1.172,2.828l0.023,0.023c-0.071,0.053-0.145,0.101-0.217,0.152c-0.225,0.198-0.471,0.373-0.737,0.518
	c-5.109,3.455-11.266,5.479-17.897,5.479c-11.046,0-20-10.745-20-24s8.954-24,20-24h2c9.941,0,18,8.059,18,18
	C276.219,80.725,271.742,85.201,266.219,85.201z M258.219,65.201h-2c-5.59,0-10.272,5.103-11.606,12h21.606c1.104,0,2-0.896,2-2
	C268.219,69.678,263.742,65.201,258.219,65.201z M222.219,105.201c-2.209,0-4-1.791-4-4v-24c0-6.627-5.373-12-12-12
	c-6.628,0-12,5.373-12,12v24c0,2.209-1.791,4-4,4s-4-1.791-4-4v-40c0-2.209,1.791-4,4-4s4,1.791,4,4l0,0c3.343-2.512,7.497-4,12-4
	c11.046,0,20,8.954,20,20v24C226.219,103.41,224.428,105.201,222.219,105.201z M170.219,105.201c-2.209,0-4-1.791-4-4v-40
	c0-2.209,1.791-4,4-4s4,1.791,4,4v40C174.219,103.41,172.428,105.201,170.219,105.201z M170.719,49.201h-1
	c-1.934,0-3.5-1.567-3.5-3.5v-1c0-1.933,1.566-3.5,3.5-3.5h1c1.933,0,3.5,1.567,3.5,3.5v1
	C174.219,47.634,172.652,49.201,170.719,49.201z M154.219,105.201c-6.628,0-12-5.373-12-12v-48c0-2.209,1.791-4,4-4s4,1.791,4,4v48
	c0,2.209,1.791,4,4,4s4,1.791,4,4S156.428,105.201,154.219,105.201z M135.962,30.004l-34,58.89
	c-8.836,15.305-28.407,20.549-43.713,11.713l50-86.603c7.732-13.392,24.856-17.98,38.249-10.249
	c1.913,1.104,2.568,3.551,1.464,5.464L135.962,30.004z M46.542,88.892l-0.005,0.003l-34-58.89l-12-20.784
	c-1.104-1.914-0.449-4.36,1.464-5.464C15.393-3.976,32.518,0.612,40.25,14.004l31.691,54.89l-17.026,29.49
	C51.438,95.752,48.625,92.508,46.542,88.892z"/>
</svg>
